<svg width="50" height="51" viewBox="0 0 50 51" fill="current" xmlns="http://www.w3.org/2000/svg">
<path d="M38.5897 50.37C32.2897 50.37 27.1797 45.26 27.1797 38.96V29.74C27.1797 28.53 28.1597 27.55 29.3697 27.55H38.5897C44.8897 27.55 49.9997 32.66 49.9997 38.96C49.9997 45.26 44.8897 50.37 38.5897 50.37Z" fill="current"/>
<path d="M11.41 50.37C17.71 50.37 22.82 45.26 22.82 38.96V29.74C22.82 28.53 21.84 27.55 20.63 27.55H11.41C5.11 27.55 0 32.66 0 38.96C0 45.26 5.11 50.37 11.41 50.37Z" fill="current"/>
<path d="M38.5897 0.369995C32.2897 0.369995 27.1797 5.48 27.1797 11.78V21C27.1797 22.21 28.1597 23.19 29.3697 23.19H38.5897C44.8897 23.19 49.9997 18.08 49.9997 11.78C49.9997 5.48 44.8897 0.369995 38.5897 0.369995Z" fill="current"/>
<path d="M11.41 0.369995C17.71 0.369995 22.82 5.48 22.82 11.78V21C22.82 22.21 21.84 23.19 20.63 23.19H11.41C5.11 23.19 0 18.08 0 11.78C0 5.48 5.11 0.369995 11.41 0.369995Z" fill="current"/>
</svg>
