<svg width="53" height="43" viewBox="0 0 53 43" fill="current" xmlns="http://www.w3.org/2000/svg">
<path d="M51.6999 17.23C51.1799 15.46 50.2799 13.77 49.0999 12.2L42.4799 25.88C42.4599 25.92 42.4399 25.96 42.4199 26C42.6299 26.59 42.7599 27.2 42.8099 27.82C45.1299 27.81 47.4199 27.16 49.3399 25.85C53.4199 23.06 52.4799 19.9 51.6999 17.23Z" fill="current"/>
<path d="M34.7896 22.08C34.7996 22.07 34.7996 22.06 34.8096 22.05L43.0196 6.67C39.0296 4.08 34.1896 2.34 29.4396 1.95C28.5596 1.88 27.6796 1.84 26.7896 1.84C12.2096 1.84 0.389648 11.78 0.389648 24.05C0.389648 35.67 12.9396 41.66 20.7296 42.32C23.3396 42.54 24.6996 42.11 25.7996 41.19C26.6996 40.43 26.8096 39.44 26.5996 38.46C26.4396 37.71 26.0696 37.03 25.5896 36.43C24.5796 35.17 22.5096 32.1 23.1296 28.8C23.5996 26.28 25.9896 25.61 27.8896 25.5C28.7196 25.45 29.5596 25.51 30.3796 25.66C31.4996 23.35 33.3796 22.44 34.7896 22.08ZM9.77963 31.8C7.41963 31.8 5.51962 29.91 5.51962 27.58C5.51962 25.25 7.42963 23.36 9.77963 23.36C12.1296 23.36 14.0396 25.25 14.0396 27.58C14.0396 29.91 12.1296 31.8 9.77963 31.8ZM12.9396 21C10.5796 21 8.67963 19.11 8.67963 16.78C8.67963 14.45 10.5896 12.56 12.9396 12.56C15.2896 12.56 17.1996 14.45 17.1996 16.78C17.1996 19.11 15.2896 21 12.9396 21ZM22.7196 14.08C20.5196 14.08 18.7396 12.32 18.7396 10.14C18.7396 7.96 20.5196 6.2 22.7196 6.2C24.9196 6.2 26.6996 7.96 26.6996 10.14C26.6996 12.31 24.9096 14.08 22.7196 14.08ZM30.3096 10.79C30.3096 8.81999 31.9196 7.23 33.9096 7.23C35.8996 7.23 37.5096 8.82999 37.5096 10.79C37.5096 12.75 35.8996 14.35 33.9096 14.35C31.9196 14.35 30.3096 12.76 30.3096 10.79Z" fill="current"/>
<path d="M40.6096 25.86C40.5596 25.77 40.5096 25.69 40.4596 25.6C40.6996 25.56 40.9196 25.41 41.0296 25.18L47.9696 10.83L51.5196 3.48999C52.0396 2.41999 51.5996 1.12999 50.5196 0.599991C50.1996 0.439991 49.8596 0.369995 49.5296 0.369995C48.7396 0.369995 47.9796 0.789999 47.5796 1.53L44.3496 7.59L36.2297 22.8C36.1197 23.02 36.1196 23.26 36.2096 23.46C35.2396 23.53 33.1896 23.93 31.9996 26.04C31.9396 26.14 31.8896 26.24 31.8296 26.35C30.2896 29.51 31.7596 31.22 32.4096 32.76C33.0596 34.31 32.3296 36.63 31.7496 37.26C31.5296 37.5 31.5696 37.59 31.7396 37.59C32.0096 37.59 32.5997 37.36 32.8897 37.19C33.3597 36.91 37.8897 34.78 39.6397 32.63C40.8897 31.09 41.3697 29.35 41.1697 27.73C41.0897 27.08 40.9096 26.45 40.6096 25.86Z" fill="current"/>
</svg>
