<svg width="51" height="45" viewBox="0 0 51 45" fill="current" xmlns="http://www.w3.org/2000/svg">
<path d="M50.0905 10.1C48.6705 5.20001 44.4205 1.15002 39.4105 0.480018C39.1705 0.450018 38.9305 0.420016 38.6905 0.400016C33.5905 0.0100161 29.4405 2.67001 27.2305 6.77001C26.5905 7.97001 24.8305 7.97001 24.1905 6.77001C21.9905 2.67001 17.8305 0.0100161 12.7305 0.400016C12.4905 0.420016 12.2505 0.440018 12.0105 0.480018C7.00047 1.15002 2.75045 5.20001 1.33045 10.1C0.250448 13.81 0.65045 17.87 2.02045 21.48C3.39045 25.09 5.70047 28.27 8.38047 31.01C11.3405 34.03 14.8205 36.47 18.0705 39.12L24.7205 44.04C25.3205 44.48 26.1305 44.48 26.7205 44.04L33.3705 39.12C36.6205 36.47 40.0905 34.04 43.0605 31.01C45.7405 28.27 48.0505 25.09 49.4205 21.48C50.7705 17.88 51.1605 13.81 50.0905 10.1ZM45.1905 8.23002C46.2505 8.23002 47.1104 9.11001 47.1104 10.19C47.1104 11.27 46.2505 12.15 45.1905 12.15C44.1305 12.15 43.2705 11.27 43.2705 10.19C43.2705 9.11001 44.1305 8.23002 45.1905 8.23002ZM41.0605 30.02C38.3405 32.6 35.3605 34.85 32.4805 37.2L26.5905 41.56C26.0605 41.95 25.3405 41.95 24.8205 41.56L18.9305 37.2C16.0505 34.86 12.9805 32.69 10.3505 30.02L8.19046 27.75C10.2705 25.06 12.2805 22.48 15.8405 21.97C18.5805 21.58 21.4705 22.56 23.4305 24.54C24.7805 25.9 25.7105 27.71 27.2805 28.8C27.5805 29.01 29.4904 29.99 31.8604 29.67C33.0904 29.51 33.9705 29.05 35.7305 28.13C35.9305 28.02 36.1405 27.91 36.3405 27.8C37.2205 27.31 38.0905 26.63 39.0705 26.37C40.3205 26.03 41.6905 26.39 42.6805 27.23C42.9605 27.46 43.1505 27.7 43.2805 27.87C42.4505 28.77 41.6905 29.43 41.0605 30.02ZM45.6104 22.66C45.3504 23.07 44.9105 23.29 44.4705 23.29C44.2105 23.29 43.9505 23.21 43.7205 23.06C43.0905 22.63 42.9204 21.77 43.3304 21.12C45.0804 18.42 44.8305 15.1 44.8205 15.06C44.7605 14.29 45.3105 13.61 46.0705 13.55C46.8405 13.47 47.4904 14.05 47.5504 14.82C47.5704 14.99 47.8804 19.15 45.6104 22.66Z" fill="current"/>
</svg>
