<svg width="45" height="53" viewBox="0 0 45 53" fill="current" xmlns="http://www.w3.org/2000/svg">
<path d="M13.7001 11.98C17.2501 11.1 23.9701 10.03 30.9901 12.06L33.7801 4.19C34.1301 3.2 33.3001 2.19002 31.7601 1.75002L31.0401 1.55C25.5401 -0.0099951 19.1701 -0.0099951 13.6701 1.55L12.9501 1.75002C11.4101 2.19002 10.5801 3.19 10.9301 4.19L13.7001 11.98Z" fill="current"/>
<path d="M30.39 13.71L30.4 13.69C23.92 11.86 17.6101 12.83 14.2401 13.64C4.23005 17.53 0.540039 28.35 0.540039 35.76C0.540039 44.93 10.31 52.37 22.36 52.37C34.41 52.37 44.18 44.93 44.18 35.76C44.17 28.4 39.81 17.67 30.39 13.71ZM28.78 38.38C28.2 39.22 27.34 39.89 26.19 40.39C25.53 40.68 24.7801 40.88 23.9601 41V42.54C23.9601 43.52 23.17 44.32 22.18 44.32C21.19 44.32 20.4 43.52 20.4 42.54V41.06C19.56 40.98 18.73 40.84 17.92 40.63C17.42 40.5 16.9501 40.35 16.5201 40.18C15.4801 39.78 15.01 38.58 15.47 37.56C15.91 36.58 17.04 36.13 18.04 36.53C18.35 36.66 18.68 36.77 19.01 36.87C19.48 37.01 19.94 37.12 20.4 37.2C20.94 37.29 21.4801 37.34 22.0201 37.34C22.8501 37.34 23.4901 37.25 23.9601 37.06C24.5401 36.83 24.83 36.45 24.83 35.93C24.83 35.44 24.56 35.07 24.03 34.83C24.01 34.82 23.9801 34.81 23.9601 34.8C23.4201 34.57 22.5901 34.33 21.4601 34.08C21.0901 34 20.74 33.92 20.41 33.84C19.57 33.63 18.83 33.41 18.2 33.18C17.33 32.86 16.5801 32.35 15.9601 31.64C15.3401 30.93 15.0201 29.98 15.0201 28.78C15.0201 27.73 15.3101 26.78 15.8801 25.93C16.4601 25.08 17.3101 24.41 18.4601 23.92C19.0401 23.67 19.69 23.48 20.41 23.36V21.78C20.41 20.8 21.21 20 22.19 20C23.17 20 23.97 20.8 23.97 21.78V23.24C24.66 23.3 25.35 23.4 26.03 23.56C26.37 23.64 26.7101 23.73 27.0201 23.83C28.1001 24.18 28.64 25.39 28.2 26.44C27.8 27.4 26.72 27.89 25.75 27.54C25.15 27.32 24.55 27.17 23.97 27.08C23.53 27.01 23.09 26.97 22.65 26.97C21.68 26.97 20.97 27.11 20.53 27.4C20.49 27.43 20.45 27.45 20.42 27.48C20.05 27.76 19.87 28.1 19.87 28.52C19.87 28.9 20.06 29.21 20.42 29.43C20.49 29.47 20.57 29.52 20.66 29.55C21.19 29.78 22.03 30.02 23.2 30.26C23.47 30.32 23.73 30.38 23.98 30.43C24.95 30.66 25.78 30.9 26.47 31.16C27.33 31.48 28.0801 31.99 28.7101 32.69C29.3401 33.39 29.66 34.34 29.66 35.54C29.65 36.6 29.36 37.54 28.78 38.38Z" fill="current"/>
</svg>
