<svg width="37" height="53" viewBox="0 0 37 53" fill="current" xmlns="http://www.w3.org/2000/svg">
<path d="M22.9203 47.21H13.9004C12.9104 47.21 12.1104 46.41 12.1104 45.42C12.1104 44.43 12.9104 43.63 13.9004 43.63H22.9203C23.9103 43.63 24.7104 44.43 24.7104 45.42C24.7204 46.41 23.9103 47.21 22.9203 47.21Z" fill="current"/>
<path d="M21.6004 52.37H15.2304C14.2404 52.37 13.4404 51.57 13.4404 50.58C13.4404 49.59 14.2404 48.79 15.2304 48.79H21.6004C22.5904 48.79 23.3904 49.59 23.3904 50.58C23.3904 51.57 22.5904 52.37 21.6004 52.37Z" fill="current"/>
<path d="M16.3301 0.490021C8.03012 1.41002 1.30008 8.11002 0.350083 16.4C-0.479917 23.58 2.88009 30.02 8.29009 33.66C9.00009 34.14 9.39012 34.96 9.39012 35.81V38.64C9.39012 38.65 9.39012 38.67 9.39012 38.68C9.41012 40.58 11.1001 42.04 13.0001 42.04H23.8401C25.7401 42.04 27.4301 40.58 27.4501 38.68C27.4501 38.67 27.4501 38.65 27.4501 38.64V35.8C27.4501 34.94 27.8601 34.12 28.5701 33.64C33.4201 30.37 36.6101 24.84 36.6101 18.56C36.6001 7.83003 27.3101 -0.729979 16.3301 0.490021ZM27.5701 10.65C27.2501 9.68002 27.7801 8.62002 28.7501 8.30002C29.7201 7.98002 30.7801 8.51003 31.1001 9.48003C31.4201 10.45 30.8901 11.51 29.9201 11.83C28.9401 12.16 27.8901 11.63 27.5701 10.65ZM32.1501 22.16C32.0301 22.16 31.9201 22.15 31.8001 22.11C31.0901 21.92 30.6801 21.19 30.8701 20.48C31.6801 17.51 30.4601 14.6 30.4401 14.57C30.1501 13.9 30.4701 13.12 31.1401 12.83C31.8101 12.54 32.5901 12.85 32.8801 13.53C32.9401 13.68 34.4701 17.33 33.4301 21.18C33.2601 21.77 32.7301 22.16 32.1501 22.16Z" fill="current"/>
</svg>
