<svg width="53" height="49" viewBox="0 0 53 49" fill="current" xmlns="http://www.w3.org/2000/svg">
<path d="M35.5203 3.98999L37.2303 1.45C37.5403 0.989997 37.2103 0.369995 36.6603 0.369995H25.5103C25.1303 0.369995 24.8203 0.679998 24.8203 1.06V4.09V8.37V16.47C24.8203 16.85 25.1303 17.16 25.5103 17.16H27.8503C28.2303 17.16 28.5403 16.85 28.5403 16.47V9.06C28.5403 8.68 28.8503 8.37 29.2303 8.37H36.6603C37.2103 8.37 37.5403 7.74999 37.2303 7.28999L35.5203 4.75C35.3603 4.52 35.3603 4.21999 35.5203 3.98999Z" fill="current"/>
<path d="M46.5199 22.69C47.7099 22.69 48.6799 23.81 48.6799 25.19C48.6799 26.57 47.7099 27.69 46.5199 27.69H6.82993C5.63993 27.69 4.66992 26.57 4.66992 25.19C4.66992 23.81 5.63993 22.69 6.82993 22.69H46.5199Z" fill="current"/>
<path d="M43.56 24.35C43.56 17.81 37.97 12.51 31.07 12.51H22.28C15.38 12.51 9.79004 17.81 9.79004 24.35H43.56Z" fill="current"/>
<path d="M50.1702 43.35H44.2202V31.03C44.2202 30.23 43.5701 29.58 42.7701 29.58H40.6402C39.8402 29.58 39.1902 30.23 39.1902 31.03V43.35H34.1902V31.03C34.1902 30.23 33.5402 29.58 32.7402 29.58H30.6102C29.8102 29.58 29.1602 30.23 29.1602 31.03V43.35H24.1602V31.03C24.1602 30.23 23.5102 29.58 22.7102 29.58H20.6002C19.8002 29.58 19.1502 30.23 19.1502 31.03V43.35H14.1502V31.03C14.1502 30.23 13.5001 29.58 12.7001 29.58H10.5702C9.77015 29.58 9.12016 30.23 9.12016 31.03V43.35H3.17015C1.78015 43.35 0.660156 44.47 0.660156 45.86C0.660156 47.25 1.78015 48.37 3.17015 48.37H50.1502C51.5402 48.37 52.6602 47.25 52.6602 45.86C52.6802 44.47 51.5502 43.35 50.1702 43.35Z" fill="current"/>
</svg>
