<svg width="37" height="55" viewBox="0 0 37 55" fill="current" xmlns="http://www.w3.org/2000/svg">
<path d="M35.83 44.12L24.16 22.69V13.72H26.1199C27.1599 13.72 27.9999 12.88 27.9999 11.85C27.9999 10.81 27.1599 9.97 26.1199 9.97H11.3599C10.3199 9.97 9.48994 10.81 9.48994 11.85C9.48994 12.89 10.3299 13.72 11.3599 13.72H13.2699V22.69L1.63996 44.13C-0.640038 48.34 2.07993 53.67 6.85993 53.99C7.01993 54 7.18993 54.01 7.35993 54.01H30.13C30.3 54.01 30.4599 54 30.6199 53.99C35.3999 53.67 38.12 48.32 35.83 44.12ZM25.6199 29.77L28.17 34.62C28.48 35.21 28.25 35.93 27.67 36.24C27.49 36.33 27.2999 36.38 27.1099 36.38C26.6799 36.38 26.2599 36.15 26.0499 35.74L23.4999 30.89C23.1899 30.3 23.4199 29.58 23.9999 29.27C24.5899 28.96 25.3199 29.19 25.6199 29.77ZM22.7699 25.31C23.5999 25.31 24.2699 25.98 24.2699 26.81C24.2699 27.64 23.5999 28.31 22.7699 28.31C21.9399 28.31 21.2699 27.64 21.2699 26.81C21.2699 25.98 21.9399 25.31 22.7699 25.31ZM29.01 51.86C28.79 51.88 28.5599 51.9 28.3299 51.9H9.13996C8.99996 51.9 8.85995 51.9 8.71995 51.89C4.69995 51.61 2.39995 47.12 4.31995 43.58L7.06995 38.71L7.69996 39C9.97996 40.06 12.02 41.15 14.63 40.63C16.8 40.2 18.6799 38.88 20.7699 38.15C24.1499 36.98 27.17 37.86 30.48 38.7L33.1199 43.55C35.0099 47 32.92 51.42 29.01 51.86Z" fill="current"/>
<path d="M23.1301 7.59999C24.5401 7.59999 25.6801 6.45999 25.6801 5.04999C25.6801 3.63999 24.5401 2.5 23.1301 2.5C21.7201 2.5 20.5801 3.63999 20.5801 5.04999C20.5801 6.45999 21.7201 7.59999 23.1301 7.59999Z" fill="current"/>
<path d="M27.8799 2.5C28.5702 2.5 29.1299 1.94036 29.1299 1.25C29.1299 0.559644 28.5702 0 27.8799 0C27.1895 0 26.6299 0.559644 26.6299 1.25C26.6299 1.94036 27.1895 2.5 27.8799 2.5Z" fill="current"/>
</svg>
