<svg width="53" height="40" viewBox="0 0 53 40" fill="current" xmlns="http://www.w3.org/2000/svg">
<path d="M20.1097 19.21C18.8097 18.23 17.7497 16.95 17.0497 15.46C17.0397 15.44 17.0297 15.41 17.0197 15.39C16.9997 15.4 16.9897 15.41 16.9697 15.42C15.6497 16.26 14.0897 16.76 12.4197 16.76C10.7397 16.76 9.17966 16.27 7.86966 15.42C4.02966 17.42 1.09966 23.72 0.119656 28.14C-0.250344 29.82 0.769664 31.5 2.43966 31.91L3.33966 32.13C5.89966 32.76 8.49966 33.12 11.1097 33.21C12.0497 29.84 13.5897 26.51 15.6397 23.77C16.7097 22.34 18.6197 20.46 20.1097 19.21Z" fill="current"/>
<path d="M31.9492 19.21C33.2492 18.23 34.3092 16.95 35.0092 15.46C35.0192 15.44 35.0292 15.41 35.0392 15.39C35.0592 15.4 35.0692 15.41 35.0892 15.42C36.4092 16.26 37.9692 16.76 39.6392 16.76C41.3192 16.76 42.8792 16.27 44.1892 15.42C48.0292 17.42 50.9592 23.72 51.9392 28.14C52.3092 29.82 51.2892 31.5 49.6192 31.91L48.7192 32.13C46.1592 32.76 43.5592 33.12 40.9492 33.21C40.0092 29.84 38.4692 26.51 36.4192 23.77C35.3492 22.34 33.4392 20.46 31.9492 19.21Z" fill="current"/>
<path d="M9.18985 14.84C10.1598 15.32 11.2499 15.6 12.4099 15.6C13.5699 15.6 14.6599 15.32 15.6299 14.84C15.9599 14.68 16.2699 14.5 16.5699 14.29C16.2399 13.29 16.0598 12.23 16.0598 11.12C16.0598 8.54001 17.0298 6.19 18.6198 4.41C17.3298 2.34 15.0299 0.950012 12.4099 0.950012C8.36985 0.950012 5.08984 4.23 5.08984 8.27C5.08984 11.15 6.76985 13.64 9.18985 14.84Z" fill="current"/>
<path d="M35.7298 14.45C35.9498 14.59 36.1898 14.72 36.4198 14.84C37.3898 15.32 38.4798 15.6 39.6398 15.6C40.7998 15.6 41.8898 15.32 42.8598 14.84C45.2898 13.65 46.9598 11.15 46.9598 8.27C46.9598 4.23 43.6798 0.950012 39.6398 0.950012C37.0998 0.950012 34.8698 2.25001 33.5498 4.21001C35.2498 6.02001 36.2898 8.45001 36.2898 11.12C36.2898 12.29 36.0898 13.41 35.7298 14.45Z" fill="current"/>
<path d="M39.8095 33.24C38.4095 28.61 35.1195 22.09 30.8895 20.07C30.4895 20.28 30.0695 20.47 29.6395 20.63C28.5595 21.02 27.3995 21.24 26.1795 21.24C24.8095 21.24 23.5095 20.97 22.3195 20.47C22.0295 20.35 21.7495 20.22 21.4695 20.07C17.2395 22.09 13.9495 28.61 12.5495 33.24C12.4195 33.68 12.2995 34.13 12.1995 34.57C11.8295 36.23 12.8195 37.84 14.4595 38.24L15.5295 38.5C22.4995 40.22 29.8695 40.22 36.8295 38.5L37.8995 38.24C39.5295 37.84 40.5195 36.23 40.1595 34.57C40.0595 34.13 39.9395 33.69 39.8095 33.24Z" fill="current"/>
<path d="M17.7396 13.28C17.7996 13.5 17.8596 13.72 17.9296 13.93C17.9996 14.13 18.0596 14.33 18.1496 14.52C18.8496 16.18 20.0596 17.57 21.5696 18.51C21.8196 18.67 22.0796 18.81 22.3496 18.95C22.6696 19.11 22.9996 19.25 23.3496 19.37C24.2396 19.68 25.1896 19.85 26.1896 19.85C27.1896 19.85 28.1396 19.67 29.0296 19.37C29.3696 19.25 29.6996 19.11 30.0296 18.95C30.2996 18.82 30.5596 18.67 30.8096 18.51C32.2596 17.6 33.4196 16.28 34.1396 14.71C34.2196 14.52 34.2996 14.33 34.3696 14.14C34.4396 13.94 34.5096 13.74 34.5696 13.53C34.7896 12.77 34.9096 11.96 34.9096 11.13C34.9096 9.00002 34.1396 7.05003 32.8696 5.53003C32.7296 5.37003 32.5896 5.21002 32.4396 5.05002C32.2996 4.90002 32.1496 4.77002 31.9996 4.63002C30.4596 3.25002 28.4196 2.40002 26.1896 2.40002C23.8596 2.40002 21.7396 3.33002 20.1696 4.82002C20.0196 4.96002 19.8696 5.12002 19.7296 5.27002C19.5796 5.44002 19.4296 5.61002 19.2996 5.79002C18.1496 7.27002 17.4596 9.11003 17.4596 11.12C17.4496 11.87 17.5596 12.59 17.7396 13.28Z" fill="current"/>
</svg>
