<svg width="46" height="53" viewBox="0 0 46 53" fill="current" xmlns="http://www.w3.org/2000/svg">
<path d="M23.8304 47.15C10.9304 47.15 0.44043 36.66 0.44043 23.76C0.44043 10.86 10.9304 0.369995 23.8304 0.369995C24.5304 0.369995 25.0904 0.92999 25.0904 1.62999C25.0904 2.32999 24.5304 2.89 23.8304 2.89C12.3204 2.89 2.96042 12.25 2.96042 23.76C2.96042 35.27 12.3204 44.63 23.8304 44.63C32.4604 44.63 40.0904 39.44 43.2504 31.41C43.5104 30.76 44.2404 30.44 44.8804 30.7C45.5304 30.96 45.8504 31.69 45.5904 32.33C42.0504 41.34 33.5004 47.15 23.8304 47.15Z" fill="current"/>
<path d="M23.0608 52.06C22.3608 52.06 21.8008 51.5 21.8008 50.8V46.05C21.8008 45.35 22.3608 44.79 23.0608 44.79C23.7608 44.79 24.3208 45.35 24.3208 46.05V50.8C24.3208 51.49 23.7508 52.06 23.0608 52.06Z" fill="current"/>
<path d="M32.53 52.37H13.59C13.13 52.37 12.75 51.99 12.75 51.53C12.75 51.07 13.13 50.69 13.59 50.69H32.53C32.99 50.69 33.37 51.07 33.37 51.53C33.37 51.99 32.99 52.37 32.53 52.37Z" fill="current"/>
<path d="M40.9904 14.58C40.9504 14.6 40.9004 14.62 40.8604 14.64C39.1704 15.46 36.9904 16.2 34.6504 16.79C35.0204 18.9 35.2204 21.16 35.2204 23.53C35.2204 25.9 35.0204 28.17 34.6504 30.27C37.0004 30.86 39.1704 31.59 40.8704 32.42C40.9104 32.44 40.9604 32.46 41.0004 32.48C42.4404 29.81 43.2604 26.77 43.2604 23.53C43.2504 20.29 42.4304 17.25 40.9904 14.58Z" fill="current"/>
<path d="M34.3006 15.04C36.4406 14.5 38.4106 13.84 39.9506 13.11C39.9906 13.09 40.0406 13.07 40.0806 13.05C37.6406 9.38999 33.9606 6.63 29.6406 5.37C29.7006 5.43 29.7506 5.5 29.8106 5.56C31.7906 7.72 33.3706 11.02 34.3006 15.04Z" fill="current"/>
<path d="M13.4209 23.53C13.4209 21.16 13.6208 18.89 13.9908 16.79C11.6408 16.2 9.47084 15.47 7.77084 14.64C7.73084 14.62 7.68087 14.6 7.64087 14.58C6.20087 17.25 5.38086 20.29 5.38086 23.53C5.38086 26.77 6.20087 29.81 7.64087 32.48C7.68087 32.46 7.73084 32.44 7.77084 32.42C9.46084 31.6 11.6408 30.86 13.9908 30.27C13.6208 28.17 13.4209 25.9 13.4209 23.53Z" fill="current"/>
<path d="M24.3206 16.39C26.8406 16.39 29.7606 16.03 32.5406 15.45C31.2306 9.87998 28.6306 5.73997 25.6106 4.79997C25.1906 4.66997 24.7506 4.59998 24.3206 4.59998C23.8806 4.59998 23.4506 4.66997 23.0306 4.79997C20.0106 5.72997 17.4106 9.87998 16.1006 15.45C18.8806 16.03 21.8006 16.39 24.3206 16.39Z" fill="current"/>
<path d="M14.3405 15.04C15.2705 11.02 16.8505 7.72 18.8305 5.56C18.8905 5.5 18.9405 5.43 19.0005 5.37C14.6805 6.64 11.0005 9.38999 8.56055 13.05C8.60055 13.07 8.65055 13.09 8.69055 13.11C10.2306 13.84 12.2005 14.51 14.3405 15.04Z" fill="current"/>
<path d="M14.3405 32.01C12.2005 32.55 10.2306 33.21 8.69055 33.94C8.65055 33.96 8.60055 33.98 8.56055 34C11.0005 37.66 14.6905 40.42 19.0005 41.68C18.9405 41.62 18.8905 41.55 18.8305 41.49C16.8505 39.34 15.2705 36.04 14.3405 32.01Z" fill="current"/>
<path d="M15.7404 17.19C15.3904 19.18 15.1904 21.32 15.1904 23.53C15.1904 25.74 15.3804 27.88 15.7404 29.87C18.6304 29.26 21.6604 28.9 24.3204 28.9C26.9804 28.9 30.0104 29.27 32.9004 29.87C33.2504 27.88 33.4504 25.74 33.4504 23.53C33.4504 21.32 33.2504 19.18 32.9004 17.19C30.0104 17.8 26.9804 18.16 24.3204 18.16C21.6604 18.16 18.6304 17.79 15.7404 17.19Z" fill="current"/>
<path d="M34.3006 32.01C33.3706 36.03 31.7906 39.33 29.8106 41.49C29.7506 41.55 29.7006 41.62 29.6406 41.68C33.9606 40.41 37.6406 37.66 40.0806 34C40.0406 33.98 39.9906 33.96 39.9506 33.94C38.4106 33.22 36.4406 32.55 34.3006 32.01Z" fill="current"/>
<path d="M24.3206 30.67C21.8006 30.67 18.8806 31.03 16.1006 31.61C17.4106 37.18 20.0106 41.32 23.0306 42.26C23.4506 42.39 23.8806 42.46 24.3206 42.46C24.7606 42.46 25.1906 42.39 25.6106 42.26C28.6406 41.33 31.2306 37.18 32.5406 31.61C29.7606 31.03 26.8406 30.67 24.3206 30.67Z" fill="current"/>
</svg>
