<svg width="734" height="396" viewBox="0 0 734 396" fill="none" xmlns="http://www.w3.org/2000/svg">
<path d="M0.00250244 45.1049V207.567C0.00250244 210.531 1.17987 213.373 3.2756 215.469C5.37134 217.565 8.21378 218.742 11.1776 218.742H249.817C251.29 218.745 252.748 218.457 254.109 217.895C255.47 217.333 256.706 216.507 257.747 215.465C258.787 214.423 259.612 213.186 260.173 211.825C260.734 210.464 261.02 209.005 261.016 207.532V45.1049C261.015 43.6381 260.725 42.1859 260.163 40.8311C259.601 39.4762 258.778 38.2454 257.74 37.2087C256.702 36.1721 255.471 35.35 254.115 34.7894C252.76 34.2288 251.307 33.9407 249.84 33.9414H11.2007C9.73203 33.9376 8.27701 34.2235 6.91891 34.7828C5.56082 35.342 4.32639 36.1636 3.28622 37.2005C2.24606 38.2374 1.42056 39.4693 0.857117 40.8257C0.29364 42.182 0.00326538 43.6362 0.00250244 45.1049Z" fill="url(#paint0_linear_1282_6213)"/>
<path d="M0.00256348 45.1049V50.2341H261.016V45.1049C261.015 43.6381 260.725 42.1859 260.163 40.8311C259.601 39.4762 258.778 38.2454 257.74 37.2087C256.702 36.1721 255.471 35.35 254.115 34.7894C252.76 34.2288 251.307 33.9407 249.841 33.9414H11.2008C9.73209 33.9376 8.27707 34.2235 6.91898 34.7828C5.56088 35.342 4.32645 36.1636 3.28629 37.2005C2.24612 38.2374 1.42062 39.4693 0.857178 40.8257C0.293701 42.182 0.00332642 43.6362 0.00256348 45.1049Z" fill="url(#paint1_linear_1282_6213)"/>
<path d="M242.859 45.8531C241.477 45.8531 240.358 44.7335 240.358 43.3523C240.358 41.9712 241.477 40.8516 242.859 40.8516C244.24 40.8516 245.359 41.9712 245.359 43.3523C245.359 44.7335 244.24 45.8531 242.859 45.8531Z" fill="white"/>
<path d="M231.632 45.8531C230.251 45.8531 229.131 44.7335 229.131 43.3523C229.131 41.9712 230.251 40.8516 231.632 40.8516C233.013 40.8516 234.133 41.9712 234.133 43.3523C234.133 44.7335 233.013 45.8531 231.632 45.8531Z" fill="white"/>
<path d="M220.39 45.8531C219.009 45.8531 217.889 44.7335 217.889 43.3523C217.889 41.9712 219.009 40.8516 220.39 40.8516C221.771 40.8516 222.891 41.9712 222.891 43.3523C222.891 44.7335 221.771 45.8531 220.39 45.8531Z" fill="white"/>
<path d="M86.3125 144.941L101.835 150.615L119.663 145.737L116.092 136.583L94.8339 135.43L86.3125 144.941Z" fill="url(#paint2_linear_1282_6213)"/>
<path d="M116.299 144.792C114.341 145.532 109.032 143.567 106.242 137.988L115.24 135.43C116.327 138.257 118.256 144.053 116.299 144.792Z" fill="#FFBDAF"/>
<path d="M115.246 145.818C110.274 147.862 104.875 148.651 99.5265 148.115C91.2692 147.06 87.8173 144.303 82.9996 141.969C78.1818 139.635 53.798 157.476 41.4012 172.733C30.4035 186.269 20.4078 207.096 29.5 230.442C41.8795 262.23 80.4327 252.208 91.9928 245.18C99.3351 240.62 112.831 224.817 118.786 218.553H184.775C184.775 218.553 183.899 183.33 172.302 168.057C160.705 152.784 135.151 143.074 135.151 143.074L119.865 142.863C118.473 144.062 116.918 145.057 115.246 145.818Z" fill="url(#paint3_linear_1282_6213)"/>
<path d="M139.815 218.823H143.012L165.641 158.445H159.891C158.899 158.446 157.935 158.772 157.146 159.374C156.358 159.975 155.789 160.819 155.527 161.776L139.815 218.823Z" fill="url(#paint4_linear_1282_6213)"/>
<path d="M143.017 218.817H240.03L254.75 165.292C254.972 164.488 255.005 163.644 254.847 162.826C254.688 162.007 254.343 161.236 253.837 160.573C253.332 159.911 252.68 159.374 251.932 159.004C251.185 158.635 250.362 158.444 249.528 158.445H165.234C163.62 158.446 162.051 158.975 160.767 159.953C159.483 160.931 158.555 162.303 158.126 163.859L143.017 218.817Z" fill="url(#paint5_linear_1282_6213)"/>
<path d="M141.547 215.668H114.857C114.438 215.668 114.037 215.834 113.741 216.13C113.445 216.426 113.278 216.828 113.278 217.246C113.278 217.665 113.445 218.066 113.741 218.362C114.037 218.658 114.438 218.824 114.857 218.824H141.547V215.674V215.668Z" fill="url(#paint6_linear_1282_6213)"/>
<path d="M203.926 195.792C200.408 195.792 197.555 192.94 197.555 189.422C197.555 185.903 200.408 183.051 203.926 183.051C207.445 183.051 210.297 185.903 210.297 189.422C210.297 192.94 207.445 195.792 203.926 195.792Z" fill="white"/>
<path d="M142.928 172.425C145.51 173.948 143.913 182.532 139.537 188.967C134.723 196.05 117.545 203.986 114.274 204.554C111.003 205.123 106.602 196.433 106.602 196.433C106.602 196.433 117.053 175.733 121.024 176.359C123.924 176.813 121.976 182.532 122.337 183.385C122.698 184.237 129.044 180.577 130.981 178.473C132.655 176.631 138.06 169.537 142.928 172.425Z" fill="#FFDED7"/>
<path d="M64.1078 195.196C56.5709 198.248 48.8574 208.534 48.111 212.628L48.1137 215.354L90.1387 191.54C86.4556 190.395 72.8396 191.661 64.1078 195.196Z" fill="#FF6D4D"/>
<path d="M90.503 246.079C98.3362 242.425 104.576 236.039 110.531 229.775C110.531 229.775 119.961 218.321 121.94 212.581C123.026 209.432 113.934 197.064 110.531 192.01C107.129 186.956 102.922 188.06 99.3975 188.843C93.5472 190.143 79.6048 192.208 69.1975 197.113C57.8288 202.471 48.4462 209.732 42.8402 218.373C34.7589 230.829 47.8429 251.024 66.7258 251.731C72.3204 251.941 85.5033 248.411 90.503 246.079Z" fill="url(#paint7_linear_1282_6213)"/>
<path d="M103.41 73.1719C103.41 73.1719 93.1399 73.1719 85.4692 77.5399C77.7984 81.908 67.9863 92.4553 63.3838 109.501C58.7814 126.548 57.017 138.924 66.2219 145.423C73.4878 150.547 84.091 152.515 92.6167 146.501C95.8197 144.241 97.6252 137.372 97.508 134.666C97.3908 131.96 116.056 137.734 116.056 137.734C116.056 137.734 115.058 145.083 120.682 147.939C125.566 150.419 134.395 149.409 138.12 143.893C140.911 139.759 139.548 131.235 138.845 128.646C137.817 123.933 137.251 119.215 136.86 114.407C136.743 111.456 137.083 101.787 136.597 98.9968C136.154 96.4568 133.294 86.7022 127.275 81.5778C121.255 76.4533 114.991 73.875 103.41 73.1719Z" fill="#191919"/>
<path d="M134.943 111.91C134.943 128.178 123.884 140.547 109.086 140.547C94.2881 140.547 82.2812 127.39 82.2812 111.079C82.2812 94.7676 94.2775 81.5781 109.086 81.5781C123.895 81.5781 134.943 95.6305 134.943 111.91Z" fill="url(#paint8_linear_1282_6213)"/>
<path d="M117.642 97.6762C113.065 101.944 107.766 105.364 101.992 107.776C96.8379 109.858 91.4445 111.29 85.9364 112.038L78.1378 111.089C78.1378 111.089 74.9417 98.2195 82.2822 89.3556C89.6226 80.4916 110.504 77.0824 114.041 78.2543C117.578 79.4262 131.279 88.5352 133.527 94.4375C135.775 100.34 135.658 108.458 135.658 108.458C134.731 108.409 133.814 108.241 132.93 107.957C130.587 107.297 124.024 105.464 117.642 97.6762Z" fill="#191919"/>
<path d="M79.9475 127.822C85.8353 128.372 91.1386 123.138 91.7929 116.131C92.4472 109.124 88.2047 102.998 82.317 102.449C76.4292 101.899 71.1258 107.133 70.4715 114.14C69.8172 121.147 74.0598 127.272 79.9475 127.822Z" fill="url(#paint9_linear_1282_6213)"/>
<path d="M107.787 115.911C107.915 114.399 107.177 113.101 106.14 113.013C105.102 112.925 104.157 114.081 104.029 115.593C103.901 117.106 104.638 118.403 105.676 118.491C106.714 118.579 107.659 117.424 107.787 115.911Z" fill="#191919"/>
<path d="M126.341 117.474C126.47 115.961 125.732 114.664 124.694 114.576C123.657 114.488 122.712 115.643 122.583 117.156C122.455 118.668 123.193 119.966 124.231 120.054C125.268 120.142 126.213 118.987 126.341 117.474Z" fill="#191919"/>
<path d="M115.484 116.043C115.879 117.112 116.416 118.123 117.082 119.047C117.27 119.243 117.408 119.482 117.484 119.742C117.56 120.003 117.572 120.278 117.52 120.544C117.468 120.81 117.353 121.06 117.184 121.272C117.015 121.485 116.797 121.653 116.55 121.764C115.971 122.086 115.325 122.268 114.664 122.297" stroke="#191919" stroke-width="1.6" stroke-linecap="round" stroke-linejoin="round"/>
<path d="M103.273 125.14C103.253 124.971 103.275 124.8 103.335 124.641C103.395 124.483 103.492 124.341 103.618 124.227C103.744 124.113 103.896 124.032 104.06 123.988C104.224 123.945 104.396 123.942 104.562 123.978C106.852 124.479 110.879 124.756 113.085 125.097C115.088 125.406 119.392 125.758 121.352 126.045C121.534 126.073 121.707 126.147 121.852 126.261C121.997 126.375 122.11 126.525 122.179 126.696C122.249 126.866 122.273 127.052 122.25 127.235C122.226 127.418 122.155 127.592 122.045 127.739C120.766 129.369 118.135 131.916 112.797 131.798C106.597 131.649 103.954 128.357 103.273 125.14Z" fill="white"/>
<path d="M81.9688 107.241C84.49 99.5616 95.2092 86.1353 108.893 85.4986C122.578 84.8619 130.686 94.5924 132.056 97.9073" stroke="#FF7C64" stroke-width="2.6" stroke-linecap="round"/>
<path d="M670.396 395.995H680.977L648.794 308.133L639.718 312.47L670.396 395.995Z" fill="url(#paint10_linear_1282_6213)"/>
<path d="M607.26 378.019H596.711L623.985 308.242L633.033 311.686L607.26 378.019Z" fill="url(#paint11_linear_1282_6213)"/>
<path d="M120.695 307.734H733.009C733.009 310.121 732.061 312.41 730.373 314.098C728.685 315.786 726.396 316.734 724.01 316.734H129.695C127.308 316.734 125.019 315.786 123.331 314.098C121.643 312.41 120.695 310.121 120.695 307.734Z" fill="url(#paint12_linear_1282_6213)"/>
<path d="M120.694 307.738H733.008L666.338 276.614C665.334 276.144 664.239 275.901 663.131 275.902H194.434C193.381 275.902 192.339 276.12 191.375 276.544L120.694 307.738Z" fill="url(#paint13_linear_1282_6213)"/>
<path d="M565.79 281.177C565.79 281.177 574.66 283.351 572.584 284.666C570.508 285.981 567.774 283.699 565.79 286.503C563.807 289.307 553.661 289.633 549.645 290.747C545.629 291.861 526.325 290.709 526.325 283.302C526.325 275.895 565.79 281.177 565.79 281.177Z" fill="#E8CFFC"/>
<path d="M642.195 287.438C642.195 287.438 647.82 287.557 648.461 290.269C649.102 292.981 636.505 297.801 606.665 297.388C576.824 296.975 588.53 287.992 588.53 287.992L642.195 287.438Z" fill="#E8CFFC"/>
<path d="M230.358 281.613L229.173 282.483C228.878 282.699 228.637 282.981 228.47 283.306C228.303 283.632 228.214 283.992 228.211 284.358C228.208 284.724 228.29 285.085 228.451 285.413C228.613 285.742 228.849 286.028 229.14 286.249C236.749 292.009 259.573 308.737 266.638 307.677C275.1 306.4 230.358 281.613 230.358 281.613Z" fill="#E8CFFC"/>
<path d="M588.402 290.144C605.925 295.572 624.68 295.572 642.203 290.144C642.203 287.812 641.744 285.503 640.851 283.349C639.958 281.195 638.65 279.238 637.001 277.589C635.351 275.941 633.393 274.634 631.239 273.743C629.084 272.851 626.775 272.393 624.443 272.395H606.167C602.496 272.394 598.914 273.531 595.916 275.65C592.917 277.769 590.649 280.765 589.423 284.225C588.745 286.125 588.399 288.127 588.402 290.144Z" fill="url(#paint14_linear_1282_6213)"/>
<path d="M602.521 249.418L606.667 251.51L610.335 249.418L620.547 274.302H612.727L602.521 249.418Z" fill="url(#paint15_linear_1282_6213)"/>
<path d="M621.74 157.777H629.555L610.572 246.544L605.828 245.294L602.757 246.544L621.74 157.777Z" fill="url(#paint16_linear_1282_6213)"/>
<path d="M601.716 244.932L602.586 243.964C602.798 243.73 603.078 243.569 603.387 243.502C603.697 243.436 604.019 243.468 604.308 243.595L611.101 246.578C611.45 246.735 611.726 247.018 611.874 247.37C612.022 247.721 612.031 248.116 611.9 248.475L610.813 251.426C610.693 251.757 610.461 252.035 610.158 252.214C609.854 252.392 609.498 252.459 609.15 252.404L603.868 251.535C603.592 251.49 603.333 251.371 603.121 251.188C602.909 251.006 602.752 250.768 602.667 250.502L601.374 246.404C601.296 246.15 601.287 245.881 601.347 245.622C601.407 245.364 601.535 245.125 601.716 244.932ZM605.335 250.268C605.686 250.423 606.074 250.469 606.451 250.403C606.829 250.336 607.177 250.159 607.454 249.894C607.73 249.629 607.922 249.288 608.004 248.914C608.086 248.54 608.056 248.15 607.916 247.793C607.777 247.436 607.535 247.129 607.221 246.91C606.906 246.691 606.534 246.57 606.151 246.563C605.769 246.556 605.392 246.662 605.07 246.869C604.748 247.076 604.494 247.374 604.341 247.725C604.137 248.194 604.126 248.725 604.313 249.202C604.499 249.679 604.867 250.062 605.335 250.268Z" fill="url(#paint17_linear_1282_6213)"/>
<path d="M630.562 143.651L552.724 110.289L551.752 112.838L622.443 146.885C623.183 147.242 623.99 147.441 624.811 147.47C625.632 147.499 626.45 147.357 627.214 147.053C627.977 146.749 628.669 146.29 629.246 145.704C629.822 145.119 630.271 144.42 630.562 143.651Z" fill="url(#paint18_linear_1282_6213)"/>
<path d="M624.757 157.777C625.384 156.128 625.372 154.304 624.722 152.664C624.073 151.023 622.833 149.686 621.247 148.913L549.946 114.23L548.973 116.779L624.757 157.777Z" fill="url(#paint19_linear_1282_6213)"/>
<path d="M623.737 159.878L630.552 158.248C631.158 158.106 631.705 157.778 632.114 157.309C632.524 156.84 632.776 156.254 632.834 155.634L634.041 143.352C634.112 142.613 633.906 141.874 633.462 141.279C633.018 140.684 632.368 140.276 631.639 140.135L628.155 139.461C627.755 139.383 627.343 139.388 626.945 139.476C626.546 139.564 626.17 139.733 625.84 139.972L623.123 141.945C622.8 142.179 622.527 142.476 622.32 142.817C622.114 143.159 621.979 143.539 621.922 143.934L620.096 156.531C620.024 157.013 620.072 157.506 620.235 157.966C620.398 158.426 620.67 158.839 621.03 159.169C621.389 159.499 621.823 159.737 622.295 159.86C622.767 159.984 623.262 159.99 623.737 159.878Z" fill="url(#paint20_linear_1282_6213)"/>
<path d="M624.907 156.25L629.287 155.228C629.678 155.135 630.029 154.923 630.293 154.621C630.557 154.319 630.72 153.943 630.76 153.544L631.537 145.609C631.585 145.132 631.452 144.653 631.164 144.269C630.876 143.885 630.455 143.622 629.983 143.533L627.739 143.099C627.479 143.048 627.212 143.051 626.954 143.108C626.696 143.165 626.452 143.275 626.239 143.43L624.483 144.702C624.275 144.853 624.099 145.044 623.967 145.264C623.834 145.485 623.747 145.73 623.712 145.984L622.532 154.136C622.492 154.447 622.528 154.763 622.638 155.056C622.747 155.35 622.927 155.612 623.161 155.821C623.395 156.029 623.677 156.177 623.981 156.252C624.285 156.327 624.603 156.326 624.907 156.25Z" fill="url(#paint21_linear_1282_6213)"/>
<path d="M553.174 105.452L546.207 104.097L542.304 124.154L549.271 125.51C550.04 125.659 550.836 125.497 551.485 125.06C552.133 124.622 552.582 123.945 552.731 123.177L555.506 108.918C555.58 108.537 555.579 108.145 555.503 107.765C555.426 107.385 555.275 107.023 555.058 106.701C554.842 106.379 554.564 106.103 554.24 105.889C553.917 105.675 553.555 105.526 553.174 105.452Z" fill="url(#paint22_linear_1282_6213)"/>
<path d="M542.311 103.339L546.211 104.098L542.303 124.182L538.404 123.423L542.311 103.339Z" fill="url(#paint23_linear_1282_6213)"/>
<path d="M513.509 126.105C520.451 130.587 528.852 132.224 536.969 130.676L541.991 104.883C542.596 101.774 541.942 98.5518 540.173 95.924C538.404 93.2962 535.665 91.4777 532.557 90.8679C529.445 90.2634 526.22 90.9193 523.592 92.6915C520.964 94.4637 519.147 97.2071 518.541 100.318L513.509 126.105Z" fill="url(#paint24_linear_1282_6213)"/>
<path d="M496.692 151.559C509.626 161.054 527.511 164.532 543.059 160.586C545.118 149.983 543.7 138.881 538.923 128.305L537.896 126.034L514.435 121.469L512.631 123.191C504.24 131.196 498.757 140.957 496.692 151.559Z" fill="url(#paint25_linear_1282_6213)"/>
<path d="M589.416 284.225C606.305 289.247 624.291 289.247 641.18 284.225C639.954 280.765 637.686 277.769 634.687 275.65C631.689 273.531 628.108 272.394 624.436 272.395H606.16C602.488 272.394 598.907 273.531 595.909 275.65C592.91 277.769 590.642 280.765 589.416 284.225Z" fill="url(#paint26_linear_1282_6213)"/>
<path d="M534.567 284.352C542.584 287.222 551.348 287.222 559.365 284.352L566.25 257.555H527.725L534.567 284.352Z" fill="url(#paint27_linear_1282_6213)"/>
<path d="M524.531 248.091C524.531 248.369 524.743 248.635 525.156 248.907C527.526 250.428 536.389 251.569 546.97 251.569C557.551 251.569 566.388 250.428 568.768 248.907C569.176 248.651 569.398 248.363 569.398 248.091C569.398 246.173 559.356 244.613 546.97 244.613C534.585 244.613 524.531 246.146 524.531 248.091Z" fill="url(#paint28_linear_1282_6213)"/>
<path d="M525.154 248.882C527.523 250.404 536.387 251.545 546.968 251.545C557.549 251.545 566.385 250.404 568.766 248.882C566.385 247.361 557.527 246.23 546.968 246.23C536.409 246.23 527.523 247.361 525.154 248.882Z" fill="url(#paint29_linear_1282_6213)"/>
<path d="M550.111 205.112C552.231 207.006 553.95 209.685 555.158 212.477C556.524 215.634 557.247 218.89 557.338 220.461C557.503 223.424 551.922 241.283 551.922 241.283L540.021 240.543L538.713 219.145C538.504 217.506 538.443 215.85 538.533 214.2C538.697 211.567 538.205 206.547 537.712 204.325C537.219 202.102 536.276 199.593 537.385 198.893C538.494 198.193 539.843 199.212 542.347 200.076C544.851 200.941 546.745 202.104 550.111 205.112Z" fill="url(#paint30_linear_1282_6213)"/>
<path fill-rule="evenodd" clip-rule="evenodd" d="M544.355 209.046C544.748 208.768 545.292 208.863 545.57 209.258L544.856 209.761C545.57 209.258 545.57 209.258 545.57 209.259L545.57 209.259L545.572 209.261L545.576 209.267C545.579 209.271 545.583 209.277 545.588 209.285C545.599 209.301 545.614 209.323 545.633 209.351C545.672 209.409 545.726 209.491 545.795 209.6C545.933 209.816 546.129 210.135 546.366 210.551C546.841 211.385 547.485 212.613 548.171 214.209C549.543 217.402 551.087 222.072 551.796 228.01C551.853 228.49 551.512 228.925 551.034 228.983C550.556 229.04 550.122 228.698 550.064 228.218C549.378 222.47 547.885 217.963 546.569 214.901C545.911 213.37 545.298 212.201 544.852 211.419C544.629 211.029 544.449 210.735 544.325 210.541C544.264 210.444 544.216 210.373 544.185 210.326C544.17 210.303 544.159 210.287 544.151 210.276L544.144 210.266L544.143 210.264L544.143 210.264C543.866 209.869 543.961 209.324 544.355 209.046Z" fill="url(#paint31_linear_1282_6213)"/>
<path d="M547.393 239.804C547.393 239.804 548.46 228.939 553.788 221.45C559.116 213.962 562.454 211.349 567.74 211.249C573.026 211.148 573.567 210.838 574.388 211.743C575.209 212.648 574.388 213.225 573.485 214.13C572.583 215.035 567.904 218.409 567.412 220.056C566.919 221.703 567.822 222.936 567.165 228.615C566.508 234.295 563.062 244.992 557.645 249.272C552.228 253.553 538.747 250.718 537.722 249.959C536.698 249.2 530.72 242.436 528.919 234.698C527.119 226.961 527.934 221.531 527.771 220.05C527.608 218.569 522.103 214.741 520.795 213.425C519.487 212.109 520.753 211.078 521.984 211.078C523.215 211.078 523.503 211.285 524.981 211.243C526.459 211.201 528.469 210.913 530.971 211.737C533.474 212.56 537.003 215.77 540.615 220.585C544.226 225.4 545.745 230.83 546.4 232.973C547.056 235.115 547.393 239.804 547.393 239.804Z" fill="url(#paint32_linear_1282_6213)"/>
<path fill-rule="evenodd" clip-rule="evenodd" d="M560.214 224.142C560.634 224.378 560.785 224.911 560.55 225.332L560.548 225.336L560.54 225.35C560.533 225.363 560.522 225.382 560.508 225.408C560.48 225.459 560.438 225.536 560.384 225.636C560.276 225.836 560.12 226.128 559.93 226.495C559.548 227.23 559.028 228.262 558.476 229.451C557.363 231.846 556.147 234.814 555.635 237.262C555.113 239.757 554.79 242.799 554.597 245.237C554.501 246.452 554.438 247.509 554.399 248.262C554.379 248.638 554.366 248.938 554.357 249.143C554.353 249.246 554.35 249.325 554.348 249.378C554.347 249.405 554.346 249.425 554.346 249.438L554.345 249.457C554.329 249.94 553.926 250.318 553.444 250.302C552.963 250.286 552.586 249.882 552.602 249.399L553.474 249.428C552.602 249.399 552.602 249.399 552.602 249.399L552.603 249.376C552.603 249.362 552.604 249.341 552.605 249.313C552.607 249.257 552.61 249.176 552.615 249.07C552.624 248.86 552.637 248.554 552.657 248.171C552.697 247.406 552.761 246.333 552.858 245.099C553.053 242.639 553.383 239.509 553.928 236.903C554.483 234.25 555.771 231.13 556.895 228.712C557.46 227.494 557.992 226.439 558.383 225.687C558.578 225.311 558.738 225.011 558.85 224.804C558.906 224.7 558.95 224.62 558.98 224.565C558.995 224.538 559.007 224.517 559.014 224.502L559.024 224.486L559.027 224.48C559.027 224.48 559.027 224.48 559.788 224.906L559.027 224.48C559.262 224.058 559.793 223.907 560.214 224.142Z" fill="url(#paint33_linear_1282_6213)"/>
<path fill-rule="evenodd" clip-rule="evenodd" d="M533.679 224.591C533.275 224.854 533.161 225.396 533.424 225.801L533.427 225.804L533.436 225.818C533.444 225.83 533.456 225.849 533.471 225.873C533.503 225.923 533.55 225.996 533.611 226.092C533.732 226.284 533.907 226.565 534.123 226.919C534.553 227.625 535.142 228.619 535.775 229.768C537.048 232.081 538.463 234.961 539.141 237.368C539.831 239.821 540.362 242.834 540.72 245.254C540.899 246.459 541.034 247.509 541.124 248.258C541.169 248.632 541.203 248.93 541.225 249.134C541.237 249.237 541.245 249.315 541.251 249.368C541.254 249.394 541.256 249.414 541.257 249.428L541.259 249.447C541.308 249.927 541.736 250.277 542.215 250.228C542.694 250.179 543.043 249.75 542.994 249.27L542.126 249.358C542.994 249.27 542.994 249.27 542.994 249.269L542.992 249.247C542.99 249.233 542.988 249.212 542.985 249.184C542.979 249.129 542.97 249.047 542.959 248.943C542.936 248.733 542.901 248.429 542.855 248.048C542.764 247.288 542.627 246.222 542.445 244.997C542.084 242.557 541.541 239.456 540.819 236.893C540.085 234.284 538.587 231.259 537.301 228.923C536.654 227.747 536.052 226.73 535.611 226.007C535.39 225.645 535.21 225.356 535.084 225.157C535.021 225.058 534.972 224.981 534.938 224.928C534.922 224.902 534.909 224.882 534.9 224.868L534.889 224.852L534.886 224.846C534.886 224.846 534.886 224.846 534.155 225.323L534.886 224.846C534.623 224.441 534.082 224.327 533.679 224.591Z" fill="url(#paint34_linear_1282_6213)"/>
<path d="M555.999 252.044C556.254 251.989 556.481 251.871 556.652 251.707C556.823 251.543 556.93 251.339 556.96 251.12C556.99 250.902 556.941 250.679 556.82 250.479C556.699 250.279 556.511 250.11 556.28 249.994C554.954 249.261 553.39 248.9 551.827 248.966C548.662 249.28 545.066 246.14 543.029 248.141C540.992 250.143 539.19 248.062 537.386 250.58L537.337 250.63C537.208 250.782 537.127 250.958 537.104 251.145C537.08 251.331 537.113 251.522 537.2 251.698C537.287 251.874 537.426 252.032 537.603 252.155C537.78 252.278 537.99 252.364 538.213 252.404L544.334 253.473C546.14 253.783 547.993 253.748 549.75 253.37L555.999 252.044Z" fill="url(#paint35_linear_1282_6213)"/>
<path d="M569.398 248.094L567.768 258.702C554.658 262.18 540.884 262.309 527.711 259.077L526.173 258.702L524.542 248.094L529.113 249.132C541.395 251.936 554.163 251.832 566.399 248.827L569.398 248.094Z" fill="url(#paint36_linear_1282_6213)"/>
<path d="M210.892 219.221L225.777 272.903C226.016 273.765 226.531 274.526 227.244 275.068C227.956 275.61 228.827 275.903 229.722 275.902H236.086L219.978 212.352H216.114C215.28 212.355 214.457 212.55 213.71 212.922C212.963 213.294 212.312 213.833 211.807 214.497C211.302 215.161 210.957 215.933 210.798 216.752C210.639 217.571 210.671 218.416 210.892 219.221Z" fill="url(#paint37_linear_1282_6213)"/>
<path d="M310.182 212.352H217.856C217.25 212.349 216.651 212.487 216.107 212.754C215.563 213.022 215.088 213.412 214.719 213.893C214.351 214.375 214.099 214.935 213.983 215.53C213.867 216.126 213.891 216.74 214.052 217.324L229.529 273.028C229.76 273.858 230.257 274.59 230.944 275.109C231.632 275.629 232.472 275.908 233.333 275.902H325.627C326.232 275.902 326.828 275.762 327.369 275.493C327.91 275.224 328.382 274.833 328.748 274.352C329.113 273.871 329.363 273.311 329.477 272.718C329.59 272.124 329.566 271.512 329.404 270.93L313.965 215.226C313.735 214.4 313.24 213.672 312.557 213.153C311.874 212.634 311.04 212.352 310.182 212.352Z" fill="url(#paint38_linear_1282_6213)"/>
<path d="M305.148 216.516H224.913C224.387 216.518 223.868 216.642 223.397 216.879C222.927 217.115 222.518 217.457 222.202 217.879C221.886 218.3 221.672 218.789 221.576 219.306C221.481 219.824 221.507 220.357 221.652 220.863L235.07 269.268C235.267 269.983 235.692 270.615 236.281 271.066C236.869 271.517 237.589 271.764 238.331 271.768H318.56C319.087 271.766 319.606 271.642 320.076 271.405C320.546 271.169 320.956 270.826 321.272 270.405C321.588 269.984 321.802 269.495 321.897 268.977C321.992 268.459 321.966 267.927 321.821 267.42L308.403 219.015C308.206 218.302 307.781 217.672 307.194 217.22C306.607 216.769 305.888 216.522 305.148 216.516Z" fill="url(#paint39_linear_1282_6213)"/>
<path d="M228.653 277.099C229.512 276.947 231.208 278.643 232.333 279.904H327.979C329.007 279.904 330.008 280.225 330.843 280.822L362.07 303.152C363.347 302.881 365.412 302.511 366.113 302.783V306.587C366.126 306.737 366.107 306.889 366.059 307.031C366.01 307.174 365.932 307.305 365.829 307.416C365.727 307.527 365.603 307.615 365.465 307.676C365.327 307.736 365.177 307.767 365.026 307.766H267.57C265.796 307.767 264.066 307.212 262.624 306.179L229.181 282.268C229.014 282.155 228.878 282.004 228.784 281.827C228.689 281.649 228.639 281.452 228.637 281.251L228.653 277.099Z" fill="url(#paint40_linear_1282_6213)"/>
<path d="M327.969 275.902H229.936C229.665 275.903 229.4 275.991 229.181 276.151C228.962 276.312 228.799 276.537 228.715 276.796C228.632 277.055 228.633 277.333 228.718 277.591C228.802 277.85 228.966 278.074 229.186 278.234L262.63 302.146C264.072 303.179 265.802 303.733 267.576 303.732H364.978C365.216 303.733 365.448 303.658 365.64 303.519C365.832 303.379 365.975 303.181 366.048 302.955C366.121 302.728 366.119 302.485 366.044 302.259C365.969 302.033 365.824 301.838 365.63 301.7L330.849 276.815C330.009 276.217 329.001 275.897 327.969 275.902Z" fill="#F1F1F2"/>
<path d="M325.584 284.341H328.882C328.936 284.342 328.988 284.324 329.031 284.293C329.074 284.261 329.106 284.216 329.122 284.165C329.137 284.114 329.136 284.059 329.119 284.009C329.101 283.959 329.068 283.915 329.024 283.885L326.067 281.809C325.889 281.68 325.674 281.611 325.453 281.613H322.225C322.173 281.613 322.122 281.629 322.079 281.66C322.037 281.691 322.006 281.734 321.99 281.784C321.974 281.834 321.975 281.887 321.992 281.937C322.009 281.986 322.041 282.029 322.084 282.059L325.127 284.195C325.26 284.291 325.42 284.342 325.584 284.341Z" fill="url(#paint41_linear_1282_6213)"/>
<path d="M318.427 284.341H321.726C321.78 284.342 321.832 284.324 321.875 284.293C321.918 284.261 321.95 284.216 321.965 284.165C321.981 284.114 321.98 284.059 321.963 284.009C321.945 283.959 321.912 283.915 321.867 283.885L318.911 281.809C318.733 281.68 318.517 281.611 318.297 281.613H315.074C315.022 281.613 314.971 281.629 314.929 281.66C314.886 281.691 314.855 281.734 314.839 281.784C314.823 281.834 314.824 281.887 314.841 281.937C314.858 281.986 314.89 282.029 314.933 282.059L317.976 284.195C318.107 284.291 318.265 284.343 318.427 284.341Z" fill="url(#paint42_linear_1282_6213)"/>
<path d="M311.281 284.341H314.58C314.634 284.343 314.687 284.327 314.731 284.295C314.775 284.264 314.807 284.219 314.824 284.168C314.84 284.117 314.84 284.061 314.822 284.01C314.805 283.959 314.771 283.915 314.727 283.885L311.77 281.809C311.591 281.681 311.376 281.612 311.156 281.613H307.928C307.876 281.613 307.825 281.629 307.782 281.66C307.74 281.691 307.709 281.734 307.693 281.784C307.677 281.834 307.678 281.887 307.695 281.937C307.712 281.986 307.744 282.029 307.787 282.059L310.83 284.195C310.961 284.291 311.119 284.343 311.281 284.341Z" fill="url(#paint43_linear_1282_6213)"/>
<path d="M304.125 284.341H307.429C307.483 284.342 307.535 284.324 307.578 284.293C307.621 284.261 307.653 284.216 307.669 284.165C307.684 284.114 307.683 284.059 307.666 284.009C307.648 283.959 307.615 283.915 307.571 283.885L304.614 281.809C304.435 281.681 304.22 281.612 304 281.613H300.772C300.72 281.613 300.669 281.629 300.626 281.66C300.584 281.691 300.553 281.734 300.537 281.784C300.521 281.834 300.522 281.887 300.539 281.937C300.555 281.986 300.588 282.029 300.631 282.059L303.674 284.195C303.805 284.29 303.963 284.341 304.125 284.341Z" fill="url(#paint44_linear_1282_6213)"/>
<path d="M296.982 284.344H300.281C300.334 284.344 300.386 284.327 300.429 284.295C300.473 284.263 300.504 284.219 300.52 284.168C300.536 284.117 300.535 284.062 300.517 284.011C300.5 283.961 300.466 283.917 300.422 283.887L297.46 281.789C297.282 281.66 297.067 281.592 296.846 281.594H293.618C293.566 281.594 293.516 281.612 293.475 281.643C293.433 281.674 293.403 281.717 293.388 281.767C293.372 281.817 293.373 281.87 293.39 281.919C293.408 281.968 293.44 282.01 293.482 282.039L296.526 284.175C296.655 284.281 296.815 284.34 296.982 284.344Z" fill="url(#paint45_linear_1282_6213)"/>
<path d="M289.851 284.341H293.111C293.165 284.343 293.218 284.327 293.262 284.295C293.306 284.264 293.339 284.219 293.355 284.168C293.372 284.117 293.371 284.061 293.354 284.01C293.336 283.959 293.303 283.915 293.258 283.885L290.296 281.809C290.118 281.68 289.902 281.611 289.682 281.613H286.459C286.407 281.613 286.356 281.629 286.314 281.66C286.271 281.691 286.24 281.734 286.224 281.784C286.208 281.834 286.209 281.887 286.226 281.937C286.243 281.986 286.275 282.029 286.318 282.059L289.361 284.195C289.502 284.3 289.675 284.352 289.851 284.341Z" fill="url(#paint46_linear_1282_6213)"/>
<path d="M282.68 284.344H285.978C286.032 284.345 286.085 284.329 286.129 284.297C286.173 284.266 286.206 284.222 286.222 284.17C286.239 284.119 286.238 284.064 286.221 284.012C286.203 283.961 286.17 283.917 286.125 283.887L283.169 281.789C282.99 281.661 282.775 281.593 282.555 281.594H279.327C279.274 281.593 279.223 281.61 279.181 281.64C279.139 281.671 279.107 281.715 279.091 281.764C279.076 281.814 279.076 281.868 279.093 281.917C279.11 281.967 279.142 282.01 279.185 282.039L282.229 284.175C282.356 284.28 282.515 284.339 282.68 284.344Z" fill="url(#paint47_linear_1282_6213)"/>
<path d="M275.524 284.341H278.828C278.881 284.342 278.933 284.324 278.976 284.293C279.019 284.261 279.051 284.216 279.067 284.165C279.083 284.114 279.082 284.059 279.064 284.009C279.047 283.959 279.013 283.915 278.969 283.885L276.013 281.809C275.834 281.681 275.619 281.612 275.399 281.613H272.17C272.118 281.613 272.067 281.629 272.025 281.66C271.982 281.691 271.951 281.734 271.935 281.784C271.919 281.834 271.92 281.887 271.937 281.937C271.954 281.986 271.986 282.029 272.029 282.059L275.072 284.195C275.204 284.29 275.362 284.341 275.524 284.341Z" fill="url(#paint48_linear_1282_6213)"/>
<path d="M268.381 284.341H271.679C271.733 284.342 271.785 284.324 271.828 284.293C271.871 284.261 271.903 284.216 271.919 284.165C271.934 284.114 271.933 284.059 271.916 284.009C271.898 283.959 271.865 283.915 271.821 283.885L268.864 281.809C268.686 281.68 268.47 281.611 268.25 281.613H265.027C264.975 281.613 264.924 281.629 264.882 281.66C264.839 281.691 264.808 281.734 264.792 281.784C264.776 281.834 264.777 281.887 264.794 281.937C264.811 281.986 264.843 282.029 264.886 282.059L267.929 284.195C268.06 284.291 268.218 284.343 268.381 284.341Z" fill="url(#paint49_linear_1282_6213)"/>
<path d="M261.227 284.341H264.525C264.579 284.343 264.632 284.326 264.676 284.295C264.72 284.264 264.753 284.219 264.769 284.168C264.786 284.117 264.785 284.061 264.768 284.01C264.75 283.959 264.717 283.915 264.672 283.885L261.716 281.809C261.534 281.682 261.318 281.614 261.096 281.613H257.874C257.821 281.613 257.77 281.629 257.728 281.66C257.685 281.691 257.654 281.734 257.638 281.784C257.622 281.834 257.623 281.887 257.64 281.937C257.657 281.986 257.689 282.029 257.732 282.059L260.776 284.195C260.906 284.291 261.064 284.343 261.227 284.341Z" fill="url(#paint50_linear_1282_6213)"/>
<path d="M254.078 284.341H257.377C257.431 284.343 257.484 284.327 257.528 284.295C257.572 284.264 257.604 284.219 257.621 284.168C257.637 284.117 257.637 284.061 257.619 284.01C257.602 283.959 257.568 283.915 257.524 283.885L254.567 281.809C254.388 281.681 254.173 281.612 253.953 281.613H250.725C250.673 281.613 250.622 281.629 250.579 281.66C250.537 281.691 250.506 281.734 250.49 281.784C250.474 281.834 250.475 281.887 250.492 281.937C250.508 281.986 250.541 282.029 250.584 282.059L253.627 284.195C253.758 284.29 253.916 284.342 254.078 284.341Z" fill="url(#paint51_linear_1282_6213)"/>
<path d="M246.92 284.341H250.218C250.272 284.342 250.324 284.324 250.367 284.293C250.41 284.261 250.442 284.216 250.458 284.165C250.473 284.114 250.472 284.059 250.455 284.009C250.437 283.959 250.404 283.915 250.36 283.885L247.403 281.809C247.224 281.681 247.009 281.612 246.789 281.613H243.561C243.509 281.613 243.458 281.629 243.415 281.66C243.373 281.691 243.342 281.734 243.326 281.784C243.31 281.834 243.311 281.887 243.328 281.937C243.344 281.986 243.377 282.029 243.42 282.059L246.463 284.195C246.596 284.29 246.756 284.342 246.92 284.341Z" fill="url(#paint52_linear_1282_6213)"/>
<path d="M330.99 288.662H334.289C334.342 288.662 334.394 288.645 334.437 288.613C334.48 288.581 334.512 288.537 334.528 288.486C334.544 288.435 334.543 288.38 334.525 288.329C334.507 288.279 334.474 288.235 334.43 288.205L331.474 286.129C331.293 286.003 331.079 285.935 330.86 285.934H327.637C327.585 285.933 327.533 285.949 327.491 285.98C327.449 286.011 327.417 286.054 327.402 286.104C327.386 286.154 327.386 286.208 327.403 286.257C327.42 286.307 327.453 286.349 327.496 286.379L330.539 288.52C330.671 288.613 330.829 288.663 330.99 288.662Z" fill="url(#paint53_linear_1282_6213)"/>
<path d="M323.836 288.662H327.135C327.189 288.663 327.242 288.647 327.285 288.616C327.329 288.584 327.362 288.54 327.379 288.488C327.395 288.437 327.395 288.382 327.377 288.331C327.36 288.28 327.326 288.236 327.281 288.205L324.325 286.129C324.145 286.003 323.931 285.935 323.711 285.934H320.483C320.431 285.933 320.379 285.949 320.337 285.98C320.295 286.011 320.263 286.054 320.248 286.104C320.232 286.154 320.232 286.208 320.249 286.257C320.266 286.307 320.299 286.349 320.342 286.379L323.385 288.52C323.517 288.613 323.675 288.663 323.836 288.662Z" fill="url(#paint54_linear_1282_6213)"/>
<path d="M316.68 288.662H319.978C320.032 288.663 320.085 288.647 320.129 288.616C320.173 288.584 320.206 288.54 320.222 288.488C320.239 288.437 320.238 288.382 320.221 288.331C320.203 288.28 320.17 288.236 320.125 288.205L317.169 286.129C316.989 286.003 316.774 285.935 316.555 285.934H313.327C313.274 285.933 313.223 285.949 313.181 285.98C313.139 286.011 313.107 286.054 313.091 286.104C313.076 286.154 313.076 286.208 313.093 286.257C313.11 286.307 313.142 286.349 313.185 286.379L316.229 288.52C316.361 288.612 316.519 288.661 316.68 288.662Z" fill="url(#paint55_linear_1282_6213)"/>
<path d="M309.537 288.662H312.836C312.889 288.662 312.941 288.645 312.984 288.613C313.027 288.581 313.059 288.537 313.075 288.486C313.091 288.435 313.09 288.38 313.072 288.329C313.054 288.279 313.021 288.235 312.977 288.205L310.02 286.129C309.84 286.003 309.626 285.935 309.406 285.934H306.157C306.104 285.933 306.053 285.949 306.011 285.98C305.969 286.011 305.937 286.054 305.921 286.104C305.906 286.154 305.906 286.208 305.923 286.257C305.94 286.307 305.972 286.349 306.015 286.379L309.059 288.52C309.199 288.617 309.366 288.666 309.537 288.662Z" fill="url(#paint56_linear_1282_6213)"/>
<path d="M302.383 288.662H305.682C305.735 288.663 305.788 288.647 305.832 288.616C305.876 288.584 305.909 288.54 305.926 288.488C305.942 288.437 305.941 288.382 305.924 288.331C305.906 288.28 305.873 288.236 305.828 288.205L302.866 286.129C302.686 286.003 302.472 285.935 302.252 285.934H299.03C298.977 285.933 298.926 285.949 298.884 285.98C298.842 286.011 298.81 286.054 298.795 286.104C298.779 286.154 298.779 286.208 298.796 286.257C298.813 286.307 298.845 286.349 298.888 286.379L301.932 288.52C302.064 288.613 302.221 288.663 302.383 288.662Z" fill="url(#paint57_linear_1282_6213)"/>
<path d="M295.234 288.664H298.549C298.603 288.665 298.656 288.649 298.7 288.618C298.743 288.587 298.776 288.542 298.793 288.491C298.809 288.439 298.809 288.384 298.791 288.333C298.774 288.282 298.74 288.238 298.695 288.208L295.723 286.137C295.543 286.011 295.328 285.943 295.109 285.941H291.881C291.828 285.941 291.777 285.957 291.735 285.988C291.693 286.019 291.661 286.062 291.645 286.112C291.63 286.162 291.63 286.216 291.647 286.265C291.664 286.315 291.696 286.357 291.739 286.387L294.783 288.528C294.915 288.619 295.073 288.667 295.234 288.664Z" fill="url(#paint58_linear_1282_6213)"/>
<path d="M288.078 288.662H291.382C291.436 288.662 291.488 288.645 291.531 288.613C291.574 288.581 291.606 288.537 291.622 288.486C291.637 288.435 291.636 288.38 291.619 288.329C291.601 288.279 291.568 288.235 291.524 288.205L288.567 286.129C288.387 286.003 288.173 285.935 287.953 285.934H284.725C284.673 285.933 284.622 285.949 284.579 285.98C284.537 286.011 284.506 286.054 284.49 286.104C284.474 286.154 284.475 286.208 284.492 286.257C284.509 286.307 284.541 286.349 284.584 286.379L287.627 288.52C287.76 288.612 287.917 288.661 288.078 288.662Z" fill="url(#paint59_linear_1282_6213)"/>
<path d="M280.935 288.662H284.234C284.287 288.662 284.339 288.645 284.383 288.613C284.426 288.581 284.457 288.537 284.473 288.486C284.489 288.435 284.488 288.38 284.47 288.329C284.453 288.279 284.419 288.235 284.375 288.205L281.419 286.129C281.239 286.003 281.025 285.935 280.805 285.934H277.577C277.525 285.934 277.475 285.951 277.433 285.983C277.392 286.014 277.361 286.057 277.346 286.107C277.331 286.156 277.332 286.209 277.349 286.258C277.366 286.307 277.398 286.35 277.441 286.379L280.484 288.52C280.616 288.613 280.774 288.663 280.935 288.662Z" fill="url(#paint60_linear_1282_6213)"/>
<path d="M273.781 288.662H277.08C277.134 288.663 277.187 288.647 277.231 288.616C277.275 288.584 277.307 288.54 277.324 288.488C277.34 288.437 277.34 288.382 277.322 288.331C277.305 288.28 277.271 288.236 277.227 288.205L274.265 286.129C274.085 286.003 273.871 285.935 273.651 285.934H270.428C270.376 285.933 270.325 285.949 270.282 285.98C270.24 286.011 270.209 286.054 270.193 286.104C270.177 286.154 270.178 286.208 270.195 286.257C270.212 286.307 270.244 286.349 270.287 286.379L273.33 288.52C273.462 288.613 273.62 288.663 273.781 288.662Z" fill="url(#paint61_linear_1282_6213)"/>
<path d="M266.633 288.662H269.932C269.986 288.663 270.038 288.647 270.082 288.616C270.126 288.584 270.159 288.54 270.176 288.488C270.192 288.437 270.191 288.382 270.174 288.331C270.156 288.28 270.123 288.236 270.078 288.205L267.122 286.129C266.942 286.003 266.728 285.935 266.508 285.934H263.28C263.227 285.933 263.176 285.949 263.134 285.98C263.092 286.011 263.06 286.054 263.045 286.104C263.029 286.154 263.029 286.208 263.046 286.257C263.063 286.307 263.095 286.349 263.138 286.379L266.182 288.52C266.314 288.613 266.471 288.663 266.633 288.662Z" fill="url(#paint62_linear_1282_6213)"/>
<path d="M259.477 288.664H262.781C262.834 288.664 262.886 288.647 262.929 288.615C262.973 288.584 263.004 288.539 263.02 288.488C263.036 288.437 263.035 288.382 263.017 288.332C263 288.281 262.966 288.238 262.922 288.208L259.96 286.137C259.78 286.011 259.566 285.943 259.346 285.941H256.118C256.066 285.941 256.015 285.957 255.972 285.988C255.93 286.019 255.899 286.062 255.883 286.112C255.867 286.162 255.868 286.216 255.885 286.265C255.902 286.315 255.934 286.357 255.977 286.387L259.02 288.528C259.155 288.619 259.314 288.666 259.477 288.664Z" fill="url(#paint63_linear_1282_6213)"/>
<path d="M252.356 288.662H255.617C255.67 288.662 255.722 288.645 255.765 288.613C255.808 288.581 255.84 288.537 255.856 288.486C255.872 288.435 255.871 288.38 255.853 288.329C255.836 288.279 255.802 288.235 255.758 288.205L252.802 286.129C252.621 286.003 252.407 285.935 252.188 285.934H248.965C248.913 285.933 248.862 285.949 248.819 285.98C248.777 286.011 248.746 286.054 248.73 286.104C248.714 286.154 248.714 286.208 248.731 286.257C248.748 286.307 248.781 286.349 248.824 286.379L251.867 288.52C252.01 288.621 252.182 288.671 252.356 288.662Z" fill="url(#paint64_linear_1282_6213)"/>
<path d="M336.383 292.984H339.681C339.734 292.984 339.785 292.967 339.827 292.936C339.87 292.905 339.901 292.862 339.917 292.812C339.934 292.762 339.934 292.708 339.918 292.658C339.902 292.608 339.87 292.565 339.828 292.533L336.866 290.452C336.686 290.328 336.472 290.262 336.252 290.262H333.03C332.977 290.261 332.926 290.278 332.884 290.308C332.842 290.339 332.81 290.382 332.794 290.432C332.779 290.482 332.779 290.536 332.796 290.585C332.813 290.635 332.845 290.678 332.888 290.707L335.932 292.843C336.064 292.936 336.221 292.985 336.383 292.984Z" fill="url(#paint65_linear_1282_6213)"/>
<path d="M329.234 292.984H332.533C332.586 292.984 332.637 292.967 332.679 292.936C332.721 292.905 332.753 292.862 332.769 292.812C332.785 292.762 332.785 292.708 332.769 292.658C332.753 292.608 332.722 292.565 332.68 292.533L329.723 290.452C329.543 290.328 329.329 290.262 329.109 290.262H325.881C325.829 290.261 325.778 290.278 325.736 290.308C325.693 290.339 325.662 290.382 325.646 290.432C325.63 290.482 325.631 290.536 325.648 290.585C325.665 290.635 325.697 290.678 325.74 290.707L328.783 292.843C328.916 292.935 329.073 292.984 329.234 292.984Z" fill="url(#paint66_linear_1282_6213)"/>
<path d="M322.087 292.984H325.385C325.439 292.987 325.492 292.971 325.537 292.94C325.581 292.909 325.613 292.865 325.629 292.813C325.646 292.762 325.644 292.706 325.626 292.656C325.607 292.605 325.572 292.562 325.527 292.533L322.57 290.452C322.39 290.328 322.175 290.262 321.956 290.262H318.728C318.676 290.261 318.625 290.278 318.582 290.308C318.54 290.339 318.509 290.382 318.493 290.432C318.477 290.482 318.478 290.536 318.495 290.585C318.512 290.635 318.544 290.678 318.587 290.707L321.63 292.843C321.765 292.935 321.924 292.984 322.087 292.984Z" fill="url(#paint67_linear_1282_6213)"/>
<path d="M314.938 292.984H318.237C318.291 292.987 318.344 292.971 318.388 292.94C318.432 292.909 318.465 292.865 318.481 292.813C318.497 292.762 318.496 292.706 318.477 292.656C318.459 292.605 318.424 292.562 318.378 292.533L315.422 290.452C315.241 290.328 315.027 290.262 314.808 290.262H311.591C311.538 290.261 311.487 290.278 311.445 290.308C311.403 290.339 311.371 290.382 311.355 290.432C311.34 290.482 311.34 290.536 311.357 290.585C311.374 290.635 311.406 290.678 311.449 290.707L314.493 292.843C314.623 292.935 314.779 292.984 314.938 292.984Z" fill="url(#paint68_linear_1282_6213)"/>
<path d="M307.789 292.984H311.088C311.14 292.984 311.191 292.967 311.234 292.936C311.276 292.905 311.307 292.862 311.324 292.812C311.34 292.762 311.34 292.708 311.324 292.658C311.308 292.608 311.277 292.565 311.234 292.533L308.278 290.452C308.097 290.328 307.883 290.262 307.664 290.262H304.436C304.384 290.261 304.333 290.278 304.29 290.308C304.248 290.339 304.217 290.382 304.201 290.432C304.185 290.482 304.185 290.536 304.202 290.585C304.219 290.635 304.252 290.678 304.295 290.707L307.338 292.843C307.47 292.936 307.628 292.985 307.789 292.984Z" fill="url(#paint69_linear_1282_6213)"/>
<path d="M300.636 292.984H303.94C303.994 292.987 304.047 292.971 304.091 292.94C304.135 292.909 304.168 292.865 304.184 292.813C304.2 292.762 304.199 292.706 304.18 292.656C304.162 292.605 304.127 292.562 304.081 292.533L301.125 290.452C300.944 290.328 300.73 290.262 300.511 290.262H297.283C297.231 290.261 297.179 290.278 297.137 290.308C297.095 290.339 297.063 290.382 297.048 290.432C297.032 290.482 297.032 290.536 297.049 290.585C297.066 290.635 297.099 290.678 297.142 290.707L300.185 292.843C300.318 292.934 300.475 292.984 300.636 292.984Z" fill="url(#paint70_linear_1282_6213)"/>
<path d="M293.485 292.984H296.784C296.838 292.987 296.891 292.971 296.935 292.94C296.979 292.909 297.012 292.865 297.028 292.813C297.044 292.762 297.043 292.706 297.024 292.656C297.006 292.605 296.971 292.562 296.925 292.533L293.969 290.452C293.788 290.328 293.574 290.262 293.355 290.262H290.127C290.074 290.261 290.023 290.278 289.981 290.308C289.939 290.339 289.907 290.382 289.891 290.432C289.876 290.482 289.876 290.536 289.893 290.585C289.91 290.635 289.942 290.678 289.985 290.707L293.029 292.843C293.163 292.935 293.322 292.984 293.485 292.984Z" fill="url(#paint71_linear_1282_6213)"/>
<path d="M286.336 292.984H289.635C289.687 292.984 289.738 292.967 289.78 292.936C289.823 292.905 289.854 292.862 289.871 292.812C289.887 292.762 289.887 292.708 289.871 292.658C289.855 292.608 289.824 292.565 289.781 292.533L286.82 290.452C286.639 290.328 286.425 290.262 286.205 290.262H282.983C282.931 290.261 282.879 290.278 282.837 290.308C282.795 290.339 282.763 290.382 282.748 290.432C282.732 290.482 282.732 290.536 282.749 290.585C282.766 290.635 282.798 290.678 282.842 290.707L285.885 292.843C286.017 292.936 286.175 292.985 286.336 292.984Z" fill="url(#paint72_linear_1282_6213)"/>
<path d="M279.18 292.984H282.478C282.531 292.984 282.582 292.967 282.624 292.936C282.667 292.905 282.698 292.862 282.714 292.812C282.731 292.762 282.731 292.708 282.715 292.658C282.699 292.608 282.667 292.565 282.625 292.533L279.669 290.452C279.488 290.328 279.274 290.262 279.055 290.262H275.827C275.774 290.261 275.723 290.278 275.681 290.308C275.639 290.339 275.607 290.382 275.591 290.432C275.576 290.482 275.576 290.536 275.593 290.585C275.61 290.635 275.642 290.678 275.685 290.707L278.729 292.843C278.861 292.936 279.018 292.985 279.18 292.984Z" fill="url(#paint73_linear_1282_6213)"/>
<path d="M272.034 292.984H275.339C275.392 292.987 275.446 292.971 275.49 292.94C275.534 292.909 275.566 292.865 275.583 292.813C275.599 292.762 275.597 292.706 275.579 292.656C275.56 292.605 275.525 292.562 275.48 292.533L272.523 290.452C272.343 290.328 272.129 290.262 271.909 290.262H268.66C268.607 290.261 268.556 290.278 268.514 290.308C268.471 290.339 268.44 290.382 268.424 290.432C268.409 290.482 268.409 290.536 268.426 290.585C268.443 290.635 268.475 290.678 268.518 290.707L271.562 292.843C271.7 292.939 271.866 292.988 272.034 292.984Z" fill="url(#paint74_linear_1282_6213)"/>
<path d="M264.884 292.984H268.182C268.236 292.987 268.289 292.971 268.333 292.94C268.378 292.909 268.41 292.865 268.426 292.813C268.442 292.762 268.441 292.706 268.423 292.656C268.404 292.605 268.369 292.562 268.324 292.533L265.367 290.452C265.186 290.328 264.972 290.262 264.753 290.262H261.525C261.473 290.262 261.423 290.28 261.381 290.311C261.34 290.342 261.31 290.385 261.294 290.435C261.279 290.485 261.28 290.538 261.297 290.587C261.314 290.636 261.347 290.678 261.389 290.707L264.432 292.843C264.565 292.936 264.722 292.985 264.884 292.984Z" fill="url(#paint75_linear_1282_6213)"/>
<path d="M257.734 292.984H261.049C261.101 292.984 261.152 292.967 261.195 292.936C261.237 292.905 261.268 292.862 261.285 292.812C261.301 292.762 261.301 292.708 261.285 292.658C261.269 292.608 261.238 292.565 261.195 292.533L258.234 290.452C258.053 290.328 257.839 290.262 257.619 290.262H254.397C254.345 290.261 254.293 290.278 254.251 290.308C254.209 290.339 254.177 290.382 254.162 290.432C254.146 290.482 254.146 290.536 254.163 290.585C254.18 290.635 254.213 290.678 254.256 290.707L257.299 292.843C257.426 292.933 257.578 292.982 257.734 292.984Z" fill="url(#paint76_linear_1282_6213)"/>
<path d="M172.133 325.886V395.991H316.305V325.886C316.298 323.878 315.497 321.955 314.078 320.535C312.659 319.115 310.737 318.313 308.729 318.305H179.72C177.71 318.31 175.785 319.111 174.364 320.531C172.942 321.951 172.14 323.876 172.133 325.886Z" fill="url(#paint77_linear_1282_6213)"/>
<path d="M301.055 324.973H187.388C186.393 324.973 185.408 325.169 184.489 325.549C183.57 325.93 182.734 326.488 182.031 327.192C181.328 327.895 180.77 328.73 180.389 329.649C180.008 330.568 179.812 331.554 179.812 332.548V395.991H308.609V332.548C308.609 330.543 307.814 328.619 306.398 327.199C304.982 325.779 303.061 324.979 301.055 324.973Z" fill="#E4D6FF"/>
<path d="M301.055 365.973H187.388C186.393 365.973 185.408 366.169 184.489 366.549C183.57 366.93 182.734 367.488 182.031 368.192C181.328 368.895 180.77 369.73 180.389 370.649C180.008 371.568 179.812 372.553 179.812 373.548V395.993H308.609V373.548C308.609 371.543 307.814 369.619 306.398 368.199C304.982 366.779 303.061 365.978 301.055 365.973Z" fill="url(#paint78_linear_1282_6213)"/>
<path d="M187.39 324.973H301.057C305.241 324.973 308.633 328.364 308.633 332.548V358.395C308.633 362.579 305.241 365.97 301.057 365.97H187.39C183.206 365.97 179.814 362.579 179.814 358.395V332.548C179.814 328.364 183.206 324.973 187.39 324.973Z" fill="url(#paint79_linear_1282_6213)"/>
<path d="M221.376 332.028H267.064C270.03 332.029 272.879 330.87 275.004 328.8L278.922 324.996H209.518L213.442 328.8C215.564 330.871 218.411 332.03 221.376 332.028Z" fill="#FD985F"/>
<path d="M221.376 373.026H267.064C270.031 373.024 272.88 371.864 275.004 369.792L278.922 365.988H209.518L213.442 369.792C215.563 371.865 218.411 373.025 221.376 373.026Z" fill="#FD985F"/>
<path d="M419.088 313.231C423.863 312.897 428.655 312.897 433.43 313.231" stroke="#050505" stroke-width="1.18" stroke-linecap="round" stroke-linejoin="round"/>
<path d="M419.868 186.34C419.868 186.34 420.679 197.866 420.513 198.902C420.513 198.902 415.531 202.233 415.531 205.798C415.531 207.859 430.184 205.701 440.548 200.142C445.238 197.742 449.136 194.038 451.772 189.476C452.348 188.098 447.942 188.499 447.942 188.499C447.942 188.499 441.74 180.508 439.952 177.421C438.164 174.335 419.868 186.34 419.868 186.34Z" fill="url(#paint80_linear_1282_6213)"/>
<path d="M287.664 282.92C289.207 283.409 291.796 280.39 294.238 277.157C297.169 273.25 300.793 268.678 303.029 269.577C304.612 270.202 304.788 272.42 304.592 274.676C304.368 277.235 303.528 281.367 304.983 281.924C307.748 282.979 309.027 280.4 310.991 278.075C312.567 275.872 314.932 274.36 317.594 273.855C321.169 273.045 328.847 267.135 333.028 263.999C337.355 260.756 329.531 252.062 329.531 252.062C323.015 252.459 316.549 253.44 310.209 254.993C299.816 257.513 293.076 261.245 289.334 269.049C285.593 276.854 286.091 282.442 287.635 282.93" fill="url(#paint81_linear_1282_6213)"/>
<path d="M391.047 144.699C391.047 144.699 385.186 157.398 389.093 171.074C393 184.749 408.63 191.587 421.328 188.657C428.936 186.758 432.624 184.881 438.14 179.816L448.611 161.54L437.866 136.855L391.047 144.699Z" fill="url(#paint82_linear_1282_6213)"/>
<path d="M410.269 218.879C410.269 218.879 384.236 232.955 377.516 235.768C370.795 238.582 347.625 240.096 341.774 240.535C335.923 240.975 327.483 246.777 327.483 250.684C327.483 254.592 327.072 279.296 332.933 282.548C338.794 285.801 390.976 282.763 399.201 274.314C407.426 265.864 410.269 218.879 410.269 218.879Z" fill="#FF8A73"/>
<path d="M430.974 158.374C430.974 158.374 434.881 154.466 439.413 157.104C440.466 157.768 441.312 158.712 441.857 159.83C442.402 160.948 442.625 162.196 442.5 163.434C442.119 166.032 440.722 168.904 436.17 170.096C436.17 170.096 436.835 176.113 435.018 180.176C434.939 180.354 434.916 180.551 434.95 180.743C434.985 180.934 435.075 181.111 435.211 181.25C435.346 181.39 435.52 181.486 435.71 181.526C435.9 181.566 436.098 181.548 436.278 181.476C440.185 179.854 447.023 176.367 449.836 170.858C453.949 162.896 454.164 142.862 447.453 131.609C440.742 120.356 425.796 121.508 421.332 121.508C416.698 121.561 412.108 122.414 407.764 124.028C404.111 125.484 402.216 124.536 400.516 124.136C398.817 123.735 393.678 121.831 390.953 119.31C388.228 116.79 384.379 115.403 381.615 117.445C378.85 119.486 375.754 124.751 378.684 133.523C381.615 142.295 387.407 146.72 392.506 148.674C397.605 150.627 413.772 150.5 419.535 149.846C425.298 149.192 426.226 148.586 426.226 148.586C426.226 148.586 425.836 153.871 430.974 158.374Z" fill="#191919"/>
<path d="M412.064 160.307C412.278 158.823 411.656 157.505 410.673 157.363C409.691 157.22 408.721 158.309 408.506 159.793C408.291 161.277 408.914 162.596 409.896 162.738C410.878 162.88 411.849 161.792 412.064 160.307Z" fill="#191919"/>
<path d="M394.798 156.417C395.013 154.932 394.39 153.614 393.408 153.472C392.425 153.33 391.455 154.418 391.24 155.902C391.026 157.387 391.648 158.705 392.63 158.847C393.613 158.989 394.583 157.901 394.798 156.417Z" fill="#191919"/>
<path d="M398.078 157.887C397.102 159.974 395.717 161.844 394.004 163.386C392.598 164.637 392.774 166.317 393.643 166.991C394.512 167.665 396.573 167.294 396.573 167.294" stroke="#191919" stroke-width="1.6" stroke-linecap="round" stroke-linejoin="round"/>
<path d="M395.537 172.666C395.514 172.514 395.52 172.36 395.557 172.211C395.593 172.062 395.659 171.922 395.749 171.799C395.84 171.675 395.954 171.571 396.086 171.492C396.217 171.412 396.363 171.36 396.514 171.337C399.718 170.732 409.213 168.964 411.166 168.69C413.442 168.368 411.167 175.528 404.612 177.218C400.07 178.4 396.241 176.143 395.537 172.666Z" fill="white"/>
<path d="M300.445 395.995C300.445 395.995 307.43 364.864 325.12 354.226C342.81 343.588 387.637 334.895 414.119 334.895V395.995H300.445Z" fill="url(#paint83_linear_1282_6213)"/>
<path d="M390.428 278.522C397.481 276.935 416.254 266.473 418.714 264.692C418.714 264.692 424.755 245.837 429.263 229.508C429.698 227.926 429.602 226.272 428.987 224.734C428.372 223.197 427.262 221.838 425.784 220.814C424.306 219.79 422.52 219.142 420.631 218.944C418.741 218.745 416.825 219.005 415.1 219.693L406.012 223.326L403.047 228.575C403.047 228.575 393.189 245.809 393.513 252.277C393.837 258.745 389.774 273.151 390.428 278.522Z" fill="#FF6D4D"/>
<path d="M420.209 199.138C420.209 199.138 418.851 200.789 420.414 201.707C421.733 202.469 427.945 202.224 431.784 200.369C438.895 196.92 445.128 193.277 447.697 188.158C452.708 187.967 457.701 188.857 462.338 190.766C466.974 192.676 471.146 195.561 474.569 199.226C486.291 211.729 490.198 220.179 494.711 229.595C499.224 239.012 508.875 261.459 511.317 277.46C519.435 331.654 511.317 373.775 511.317 373.775H402.899C402.899 373.775 394.469 302.193 396.56 266.314C397.732 246.416 403.261 226.645 408.799 214.718C414.484 202.449 420.209 199.138 420.209 199.138Z" fill="url(#paint84_linear_1282_6213)"/>
<path d="M434.001 345.547L400.055 339.406C400.152 349.845 400.297 353.566 402.222 368.161L434.998 361.188L434.001 345.547Z" fill="#EF663B"/>
<path d="M348.977 395.996C348.977 395.996 369.568 371.079 384.65 366.811C399.732 362.542 417.013 360.883 439.401 360.883C461.79 360.883 464.056 395.999 464.056 395.999L348.977 395.996Z" fill="url(#paint85_linear_1282_6213)"/>
<path d="M390.227 324.689C390.227 324.689 380.8 325.832 376.551 325.744C372.302 325.656 371.032 323.389 364.536 322.012C358.04 320.635 348.692 320.791 348.536 323.555C348.38 326.32 351.779 327.941 353.977 328.508C356.175 329.075 361.938 329.729 361.528 330.374C361.117 331.018 354.954 335.326 351.945 336.059C348.936 336.792 337.41 336.381 333.102 336.059C328.794 335.737 326.977 338.335 327.436 340.611C327.896 342.887 341.112 347.351 353.654 348.484C366.197 349.617 397.827 338.657 397.827 338.657L390.227 324.689Z" fill="url(#paint86_linear_1282_6213)"/>
<path d="M426.115 280.366C422.829 265.716 425.345 248.563 427.113 244.113L453.469 299.734L434.643 305.895C433.103 301.959 429.4 295.016 426.115 280.366Z" fill="#FF6D4D"/>
<path d="M426.449 250.684C428.338 264.546 430.104 270.832 433.081 278.382C435.753 285.157 441.19 297.025 441.19 297.025C441.19 297.025 417.16 302.231 406.757 306.334C396.353 310.437 387.269 314.354 388.783 330.755C390.297 347.156 398.962 350.291 407.841 351.327C416.72 352.362 439.676 349.598 439.676 349.598C439.676 349.598 499.312 335.218 504.079 317.029C508.846 298.841 495.714 262.717 486.068 246.048C476.5 229.515 459.978 204.872 441.19 212.92C426.527 219.201 424.561 236.822 426.449 250.684Z" fill="url(#paint87_linear_1282_6213)"/>
<path d="M426.449 250.684C428.338 264.546 430.104 270.832 433.081 278.382C435.753 285.157 441.19 297.025 441.19 297.025C441.19 297.025 417.16 302.231 406.757 306.334C396.353 310.437 387.269 314.354 388.783 330.755C390.297 347.156 398.962 350.291 407.841 351.327C416.72 352.362 439.676 349.598 439.676 349.598C439.676 349.598 499.312 335.218 504.079 317.029C508.846 298.841 495.714 262.717 486.068 246.048C476.5 229.515 459.978 204.872 441.19 212.92C426.527 219.201 424.561 236.822 426.449 250.684Z" fill="url(#paint88_linear_1282_6213)"/>
<path d="M419.062 395.998H575.103C575.103 395.998 573.673 374.467 575.103 332.116C576.331 296.069 559.033 286.515 530.54 285.586C525.557 285.423 520.214 285.526 514.59 285.798C483.499 287.276 431.708 297.656 419.062 395.998Z" fill="url(#paint89_linear_1282_6213)"/>
<path d="M429.534 395.994H575.102C575.102 395.994 573.673 374.463 575.102 332.112C575.765 312.749 571.075 301.027 562.168 294.185C554.506 288.288 543.724 286.033 530.539 285.582C528.752 285.636 526.936 285.702 525.078 285.794C493.982 287.278 442.186 297.652 429.534 395.994Z" fill="url(#paint90_linear_1282_6213)"/>
<path d="M358.399 53.5311C343.815 53.5311 331.992 41.7086 331.992 27.1249C331.992 12.5412 343.815 0.71875 358.399 0.71875C372.982 0.71875 384.805 12.5412 384.805 27.1249C384.805 41.7086 372.982 53.5311 358.399 53.5311Z" fill="url(#paint91_linear_1282_6213)"/>
<path d="M358.396 50.4534C345.511 50.4534 335.066 40.0081 335.066 27.1232C335.066 14.2383 345.511 3.79297 358.396 3.79297C371.281 3.79297 381.727 14.2383 381.727 27.1232C381.727 40.0081 371.281 50.4534 358.396 50.4534Z" fill="url(#paint92_linear_1282_6213)"/>
<path d="M358.162 8.82818C357.583 8.82818 357.113 8.35859 357.113 7.77933C357.113 7.20006 357.583 6.73047 358.162 6.73047C358.741 6.73047 359.211 7.20006 359.211 7.77933C359.211 8.35859 358.741 8.82818 358.162 8.82818Z" fill="white"/>
<path d="M358.162 47.5196C357.583 47.5196 357.113 47.05 357.113 46.4707C357.113 45.8915 357.583 45.4219 358.162 45.4219C358.741 45.4219 359.211 45.8915 359.211 46.4707C359.211 47.05 358.741 47.5196 358.162 47.5196Z" fill="white"/>
<path d="M338.967 28.1719C338.387 28.1719 337.918 27.7023 337.918 27.1231C337.918 26.5438 338.387 26.0742 338.967 26.0742C339.546 26.0742 340.016 26.5438 340.016 27.1231C340.016 27.7023 339.546 28.1719 338.967 28.1719Z" fill="white"/>
<path d="M377.826 28.1719C377.247 28.1719 376.777 27.7023 376.777 27.1231C376.777 26.5438 377.247 26.0742 377.826 26.0742C378.405 26.0742 378.875 26.5438 378.875 27.1231C378.875 27.7023 378.405 28.1719 377.826 28.1719Z" fill="white"/>
<path d="M344.545 14.6641C343.966 14.6641 343.496 14.1945 343.496 13.6153C343.496 13.036 343.966 12.5664 344.545 12.5664C345.124 12.5664 345.594 13.036 345.594 13.6153C345.594 14.1945 345.124 14.6641 344.545 14.6641Z" fill="white"/>
<path d="M371.912 42.0274C371.333 42.0274 370.863 41.5578 370.863 40.9785C370.863 40.3993 371.333 39.9297 371.912 39.9297C372.491 39.9297 372.961 40.3993 372.961 40.9785C372.961 41.5578 372.491 42.0274 371.912 42.0274Z" fill="white"/>
<path d="M344.662 41.9102C344.083 41.9102 343.613 41.4406 343.613 40.8614C343.613 40.2821 344.083 39.8125 344.662 39.8125C345.241 39.8125 345.711 40.2821 345.711 40.8614C345.711 41.4406 345.241 41.9102 344.662 41.9102Z" fill="white"/>
<path d="M372.139 14.4336C371.559 14.4336 371.09 13.9641 371.09 13.3848C371.09 12.8055 371.559 12.3359 372.139 12.3359C372.718 12.3359 373.188 12.8055 373.188 13.3848C373.188 13.9641 372.718 14.4336 372.139 14.4336Z" fill="white"/>
<path d="M358.406 27.1267V15.0078" stroke="#191919" stroke-width="1.18" stroke-linecap="round" stroke-linejoin="round"/>
<path d="M358.406 27.125L352.749 32.1573" stroke="#191919" stroke-width="1.18" stroke-linecap="round" stroke-linejoin="round"/>
<path d="M358.404 28.1767C357.824 28.1767 357.355 27.7069 357.355 27.1274C357.355 26.5479 357.824 26.0781 358.404 26.0781C358.983 26.0781 359.453 26.5479 359.453 27.1274C359.453 27.7069 358.983 28.1767 358.404 28.1767Z" fill="#191919"/>
<path d="M247.121 63.7188H285.244C286.982 63.7188 288.391 65.1275 288.391 66.8653V104.988C288.391 106.726 286.982 108.135 285.244 108.135H247.121C245.383 108.135 243.975 106.726 243.975 104.988V66.8653C243.975 65.1275 245.383 63.7188 247.121 63.7188Z" fill="url(#paint93_linear_1282_6213)"/>
<path d="M281.258 72.1094H251.107" stroke="white" stroke-width="3.33" stroke-linecap="round" stroke-linejoin="round"/>
<path d="M281.258 79.0469H251.107" stroke="white" stroke-width="3.33" stroke-linecap="round" stroke-linejoin="round"/>
<path d="M263.555 89.4414H251.11" stroke="white" stroke-width="3.33" stroke-linecap="round" stroke-linejoin="round"/>
<path d="M263.555 96.3789H251.11" stroke="white" stroke-width="3.33" stroke-linecap="round" stroke-linejoin="round"/>
<path d="M269.248 86.0742H279.6C280.516 86.0742 281.258 86.8163 281.258 87.7317V98.0844C281.258 98.9998 280.516 99.7419 279.6 99.7419H269.248C268.332 99.7419 267.59 98.9998 267.59 98.0844V87.7317C267.59 86.8163 268.332 86.0742 269.248 86.0742Z" fill="white"/>
<defs>
<linearGradient id="paint0_linear_1282_6213" x1="122.792" y1="126.342" x2="56.4157" y2="437.692" gradientUnits="userSpaceOnUse">
<stop stop-color="#FFF4D4"/>
<stop offset="1" stop-color="#FFB64D"/>
</linearGradient>
<linearGradient id="paint1_linear_1282_6213" x1="260.992" y1="42.0646" x2="0.00256444" y2="42.0646" gradientUnits="userSpaceOnUse">
<stop stop-color="#F27808"/>
<stop offset="1" stop-color="#EE6226"/>
</linearGradient>
<linearGradient id="paint2_linear_1282_6213" x1="116.515" y1="140.01" x2="82.3559" y2="146.889" gradientUnits="userSpaceOnUse">
<stop stop-color="#FFCABE"/>
<stop offset="1" stop-color="#FFDED7"/>
</linearGradient>
<linearGradient id="paint3_linear_1282_6213" x1="121.248" y1="141.762" x2="45.2745" y2="238.351" gradientUnits="userSpaceOnUse">
<stop stop-color="#FF7563"/>
<stop offset="1" stop-color="#FFA06A"/>
</linearGradient>
<linearGradient id="paint4_linear_1282_6213" x1="165.623" y1="188.634" x2="139.815" y2="188.634" gradientUnits="userSpaceOnUse">
<stop stop-color="#303E9F"/>
<stop offset="1" stop-color="#4A0094"/>
</linearGradient>
<linearGradient id="paint5_linear_1282_6213" x1="193.502" y1="142.367" x2="199.124" y2="192.441" gradientUnits="userSpaceOnUse">
<stop stop-color="#F1F1F2"/>
<stop offset="1" stop-color="#E6E7E8"/>
</linearGradient>
<linearGradient id="paint6_linear_1282_6213" x1="110.646" y1="217.246" x2="147.668" y2="217.246" gradientUnits="userSpaceOnUse">
<stop stop-color="#303E9F"/>
<stop offset="1" stop-color="#4A0094"/>
</linearGradient>
<linearGradient id="paint7_linear_1282_6213" x1="122.029" y1="168.189" x2="81.2176" y2="251.741" gradientUnits="userSpaceOnUse">
<stop stop-color="#FF7563"/>
<stop offset="1" stop-color="#FFA06A"/>
</linearGradient>
<linearGradient id="paint8_linear_1282_6213" x1="127.005" y1="136.791" x2="90.8497" y2="112.894" gradientUnits="userSpaceOnUse">
<stop stop-color="#FFCABE"/>
<stop offset="1" stop-color="#FFDED7"/>
</linearGradient>
<linearGradient id="paint9_linear_1282_6213" x1="89.9771" y1="100.603" x2="73.4526" y2="140.476" gradientUnits="userSpaceOnUse">
<stop stop-color="#FF7563"/>
<stop offset="1" stop-color="#FFA06A"/>
</linearGradient>
<linearGradient id="paint10_linear_1282_6213" x1="667.122" y1="328.282" x2="682.154" y2="388.409" gradientUnits="userSpaceOnUse">
<stop stop-color="#FFB64D"/>
<stop offset="1" stop-color="#FFF4D4"/>
</linearGradient>
<linearGradient id="paint11_linear_1282_6213" x1="605.711" y1="324.244" x2="595.993" y2="373.044" gradientUnits="userSpaceOnUse">
<stop stop-color="#FFB64D"/>
<stop offset="1" stop-color="#FFF4D4"/>
</linearGradient>
<linearGradient id="paint12_linear_1282_6213" x1="120.75" y1="312.221" x2="776.887" y2="312.404" gradientUnits="userSpaceOnUse">
<stop stop-color="#F27808"/>
<stop offset="1" stop-color="#EE6226"/>
</linearGradient>
<linearGradient id="paint13_linear_1282_6213" x1="418.063" y1="214.161" x2="432.666" y2="369.631" gradientUnits="userSpaceOnUse">
<stop stop-color="#FFFAE9"/>
<stop offset="1" stop-color="#E8DCFF"/>
</linearGradient>
<linearGradient id="paint14_linear_1282_6213" x1="615.085" y1="302.909" x2="615.802" y2="259.841" gradientUnits="userSpaceOnUse">
<stop stop-color="#7204C9"/>
<stop offset="1" stop-color="#D1A9EA"/>
</linearGradient>
<linearGradient id="paint15_linear_1282_6213" x1="616.623" y1="247.663" x2="607.178" y2="274.004" gradientUnits="userSpaceOnUse">
<stop stop-color="#FFB64D"/>
<stop offset="1" stop-color="#FFF4D4"/>
</linearGradient>
<linearGradient id="paint16_linear_1282_6213" x1="626.017" y1="204.079" x2="614.534" y2="201.846" gradientUnits="userSpaceOnUse">
<stop stop-color="#FFB64D"/>
<stop offset="1" stop-color="#FFF4D4"/>
</linearGradient>
<linearGradient id="paint17_linear_1282_6213" x1="612.221" y1="234.166" x2="602.77" y2="256.284" gradientUnits="userSpaceOnUse">
<stop stop-color="#FF7563"/>
<stop offset="1" stop-color="#FFA06A"/>
</linearGradient>
<linearGradient id="paint18_linear_1282_6213" x1="596.934" y1="86.9154" x2="585.772" y2="166.786" gradientUnits="userSpaceOnUse">
<stop stop-color="#FFB64D"/>
<stop offset="1" stop-color="#FFF4D4"/>
</linearGradient>
<linearGradient id="paint19_linear_1282_6213" x1="594.058" y1="86.5146" x2="582.89" y2="166.401" gradientUnits="userSpaceOnUse">
<stop stop-color="#FFB64D"/>
<stop offset="1" stop-color="#FFF4D4"/>
</linearGradient>
<linearGradient id="paint20_linear_1282_6213" x1="639.298" y1="134.968" x2="610.17" y2="161.868" gradientUnits="userSpaceOnUse">
<stop stop-color="#FF7563"/>
<stop offset="1" stop-color="#FFA06A"/>
</linearGradient>
<linearGradient id="paint21_linear_1282_6213" x1="616.136" y1="178.792" x2="627.032" y2="152.954" gradientUnits="userSpaceOnUse">
<stop stop-color="#FF7563"/>
<stop offset="1" stop-color="#FFA06A"/>
</linearGradient>
<linearGradient id="paint22_linear_1282_6213" x1="569.566" y1="114.825" x2="545.089" y2="114.825" gradientUnits="userSpaceOnUse">
<stop stop-color="#7204C9"/>
<stop offset="1" stop-color="#D1A9EA"/>
</linearGradient>
<linearGradient id="paint23_linear_1282_6213" x1="526.443" y1="95.0769" x2="550.637" y2="123.564" gradientUnits="userSpaceOnUse">
<stop stop-color="#7204C9"/>
<stop offset="1" stop-color="#D1A9EA"/>
</linearGradient>
<linearGradient id="paint24_linear_1282_6213" x1="564.327" y1="114.475" x2="522.666" y2="110.182" gradientUnits="userSpaceOnUse">
<stop stop-color="#7204C9"/>
<stop offset="1" stop-color="#D1A9EA"/>
</linearGradient>
<linearGradient id="paint25_linear_1282_6213" x1="540.26" y1="99.9862" x2="499.887" y2="209.073" gradientUnits="userSpaceOnUse">
<stop stop-color="#7204C9"/>
<stop offset="1" stop-color="#D1A9EA"/>
</linearGradient>
<linearGradient id="paint26_linear_1282_6213" x1="619.219" y1="244.722" x2="615.208" y2="285.095" gradientUnits="userSpaceOnUse">
<stop stop-color="#7204C9"/>
<stop offset="1" stop-color="#D1A9EA"/>
</linearGradient>
<linearGradient id="paint27_linear_1282_6213" x1="520.076" y1="272.029" x2="571.143" y2="269.995" gradientUnits="userSpaceOnUse">
<stop stop-color="#D1A9EA"/>
<stop offset="1" stop-color="#7204C9"/>
</linearGradient>
<linearGradient id="paint28_linear_1282_6213" x1="545.851" y1="263.004" x2="548.285" y2="230.364" gradientUnits="userSpaceOnUse">
<stop stop-color="#7204C9"/>
<stop offset="1" stop-color="#D1A9EA"/>
</linearGradient>
<linearGradient id="paint29_linear_1282_6213" x1="545.707" y1="240.133" x2="546.305" y2="244.318" gradientUnits="userSpaceOnUse">
<stop stop-color="#FFB64D"/>
<stop offset="1" stop-color="#FFF4D4"/>
</linearGradient>
<linearGradient id="paint30_linear_1282_6213" x1="541.543" y1="198.324" x2="549.711" y2="237.388" gradientUnits="userSpaceOnUse">
<stop stop-color="#87CE5E"/>
<stop offset="1" stop-color="#629A41"/>
</linearGradient>
<linearGradient id="paint31_linear_1282_6213" x1="543.237" y1="205.514" x2="551.086" y2="230.289" gradientUnits="userSpaceOnUse">
<stop stop-color="#B0F389"/>
<stop offset="1" stop-color="#79B955"/>
</linearGradient>
<linearGradient id="paint32_linear_1282_6213" x1="546.772" y1="211.569" x2="547.484" y2="257.349" gradientUnits="userSpaceOnUse">
<stop stop-color="#87CE5E"/>
<stop offset="1" stop-color="#629A41"/>
</linearGradient>
<linearGradient id="paint33_linear_1282_6213" x1="552.602" y1="255.482" x2="560.661" y2="224.955" gradientUnits="userSpaceOnUse">
<stop stop-color="#7AB756"/>
<stop offset="1" stop-color="#ACE889"/>
</linearGradient>
<linearGradient id="paint34_linear_1282_6213" x1="544.334" y1="252.466" x2="532.02" y2="222.205" gradientUnits="userSpaceOnUse">
<stop stop-color="#7AB756"/>
<stop offset="1" stop-color="#ACE889"/>
</linearGradient>
<linearGradient id="paint35_linear_1282_6213" x1="546.845" y1="251.534" x2="539.564" y2="272.488" gradientUnits="userSpaceOnUse">
<stop stop-color="#FFB64D"/>
<stop offset="1" stop-color="#FFF4D4"/>
</linearGradient>
<linearGradient id="paint36_linear_1282_6213" x1="573.367" y1="254.752" x2="522.016" y2="254.752" gradientUnits="userSpaceOnUse">
<stop stop-color="#7204C9"/>
<stop offset="1" stop-color="#D1A9EA"/>
</linearGradient>
<linearGradient id="paint37_linear_1282_6213" x1="239.982" y1="245.743" x2="202.839" y2="245.232" gradientUnits="userSpaceOnUse">
<stop stop-color="#B762F9"/>
<stop offset="1" stop-color="#4F5CC9"/>
</linearGradient>
<linearGradient id="paint38_linear_1282_6213" x1="266.413" y1="183.989" x2="275.429" y2="285.777" gradientUnits="userSpaceOnUse">
<stop stop-color="#FBE9FF"/>
<stop offset="1" stop-color="#A055FF"/>
</linearGradient>
<linearGradient id="paint39_linear_1282_6213" x1="292.464" y1="229.167" x2="173.78" y2="314.831" gradientUnits="userSpaceOnUse">
<stop stop-color="#FEFEFF"/>
<stop offset="1" stop-color="#E6E7E8"/>
</linearGradient>
<linearGradient id="paint40_linear_1282_6213" x1="387.217" y1="293.208" x2="190.726" y2="262.845" gradientUnits="userSpaceOnUse">
<stop stop-color="#4F5CC9"/>
<stop offset="1" stop-color="#B762F9"/>
</linearGradient>
<linearGradient id="paint41_linear_1282_6213" x1="329.132" y1="282.977" x2="321.981" y2="282.977" gradientUnits="userSpaceOnUse">
<stop stop-color="#F1F1F2"/>
<stop offset="1" stop-color="#CDCDCF"/>
</linearGradient>
<linearGradient id="paint42_linear_1282_6213" x1="321.976" y1="282.977" x2="314.824" y2="282.977" gradientUnits="userSpaceOnUse">
<stop stop-color="#F1F1F2"/>
<stop offset="1" stop-color="#CDCDCF"/>
</linearGradient>
<linearGradient id="paint43_linear_1282_6213" x1="314.83" y1="282.977" x2="307.684" y2="282.977" gradientUnits="userSpaceOnUse">
<stop stop-color="#F1F1F2"/>
<stop offset="1" stop-color="#CDCDCF"/>
</linearGradient>
<linearGradient id="paint44_linear_1282_6213" x1="307.679" y1="282.977" x2="300.528" y2="282.977" gradientUnits="userSpaceOnUse">
<stop stop-color="#F1F1F2"/>
<stop offset="1" stop-color="#CDCDCF"/>
</linearGradient>
<linearGradient id="paint45_linear_1282_6213" x1="300.531" y1="282.98" x2="293.379" y2="282.98" gradientUnits="userSpaceOnUse">
<stop stop-color="#F1F1F2"/>
<stop offset="1" stop-color="#CDCDCF"/>
</linearGradient>
<linearGradient id="paint46_linear_1282_6213" x1="293.378" y1="282.977" x2="286.226" y2="282.977" gradientUnits="userSpaceOnUse">
<stop stop-color="#F1F1F2"/>
<stop offset="1" stop-color="#CDCDCF"/>
</linearGradient>
<linearGradient id="paint47_linear_1282_6213" x1="286.228" y1="282.98" x2="279.082" y2="282.98" gradientUnits="userSpaceOnUse">
<stop stop-color="#F1F1F2"/>
<stop offset="1" stop-color="#CDCDCF"/>
</linearGradient>
<linearGradient id="paint48_linear_1282_6213" x1="279.078" y1="282.977" x2="271.926" y2="282.977" gradientUnits="userSpaceOnUse">
<stop stop-color="#F1F1F2"/>
<stop offset="1" stop-color="#CDCDCF"/>
</linearGradient>
<linearGradient id="paint49_linear_1282_6213" x1="271.929" y1="282.977" x2="264.777" y2="282.977" gradientUnits="userSpaceOnUse">
<stop stop-color="#F1F1F2"/>
<stop offset="1" stop-color="#CDCDCF"/>
</linearGradient>
<linearGradient id="paint50_linear_1282_6213" x1="264.775" y1="282.977" x2="257.629" y2="282.977" gradientUnits="userSpaceOnUse">
<stop stop-color="#F1F1F2"/>
<stop offset="1" stop-color="#CDCDCF"/>
</linearGradient>
<linearGradient id="paint51_linear_1282_6213" x1="257.632" y1="282.977" x2="250.481" y2="282.977" gradientUnits="userSpaceOnUse">
<stop stop-color="#F1F1F2"/>
<stop offset="1" stop-color="#CDCDCF"/>
</linearGradient>
<linearGradient id="paint52_linear_1282_6213" x1="250.479" y1="282.977" x2="243.327" y2="282.977" gradientUnits="userSpaceOnUse">
<stop stop-color="#F1F1F2"/>
<stop offset="1" stop-color="#CDCDCF"/>
</linearGradient>
<linearGradient id="paint53_linear_1282_6213" x1="334.539" y1="287.298" x2="327.387" y2="287.298" gradientUnits="userSpaceOnUse">
<stop stop-color="#F1F1F2"/>
<stop offset="1" stop-color="#CDCDCF"/>
</linearGradient>
<linearGradient id="paint54_linear_1282_6213" x1="327.385" y1="287.298" x2="320.238" y2="287.298" gradientUnits="userSpaceOnUse">
<stop stop-color="#F1F1F2"/>
<stop offset="1" stop-color="#CDCDCF"/>
</linearGradient>
<linearGradient id="paint55_linear_1282_6213" x1="320.234" y1="287.298" x2="313.082" y2="287.298" gradientUnits="userSpaceOnUse">
<stop stop-color="#F1F1F2"/>
<stop offset="1" stop-color="#CDCDCF"/>
</linearGradient>
<linearGradient id="paint56_linear_1282_6213" x1="313.086" y1="287.298" x2="305.934" y2="287.298" gradientUnits="userSpaceOnUse">
<stop stop-color="#F1F1F2"/>
<stop offset="1" stop-color="#CDCDCF"/>
</linearGradient>
<linearGradient id="paint57_linear_1282_6213" x1="305.932" y1="287.298" x2="298.78" y2="287.298" gradientUnits="userSpaceOnUse">
<stop stop-color="#F1F1F2"/>
<stop offset="1" stop-color="#CDCDCF"/>
</linearGradient>
<linearGradient id="paint58_linear_1282_6213" x1="298.782" y1="287.3" x2="291.636" y2="287.3" gradientUnits="userSpaceOnUse">
<stop stop-color="#F1F1F2"/>
<stop offset="1" stop-color="#CDCDCF"/>
</linearGradient>
<linearGradient id="paint59_linear_1282_6213" x1="291.632" y1="287.298" x2="284.481" y2="287.298" gradientUnits="userSpaceOnUse">
<stop stop-color="#F1F1F2"/>
<stop offset="1" stop-color="#CDCDCF"/>
</linearGradient>
<linearGradient id="paint60_linear_1282_6213" x1="284.484" y1="287.298" x2="277.332" y2="287.298" gradientUnits="userSpaceOnUse">
<stop stop-color="#F1F1F2"/>
<stop offset="1" stop-color="#CDCDCF"/>
</linearGradient>
<linearGradient id="paint61_linear_1282_6213" x1="277.33" y1="287.298" x2="270.184" y2="287.298" gradientUnits="userSpaceOnUse">
<stop stop-color="#F1F1F2"/>
<stop offset="1" stop-color="#CDCDCF"/>
</linearGradient>
<linearGradient id="paint62_linear_1282_6213" x1="270.187" y1="287.298" x2="263.035" y2="287.298" gradientUnits="userSpaceOnUse">
<stop stop-color="#F1F1F2"/>
<stop offset="1" stop-color="#CDCDCF"/>
</linearGradient>
<linearGradient id="paint63_linear_1282_6213" x1="263.031" y1="287.3" x2="255.879" y2="287.3" gradientUnits="userSpaceOnUse">
<stop stop-color="#F1F1F2"/>
<stop offset="1" stop-color="#CDCDCF"/>
</linearGradient>
<linearGradient id="paint64_linear_1282_6213" x1="255.883" y1="287.298" x2="248.731" y2="287.298" gradientUnits="userSpaceOnUse">
<stop stop-color="#F1F1F2"/>
<stop offset="1" stop-color="#CDCDCF"/>
</linearGradient>
<linearGradient id="paint65_linear_1282_6213" x1="339.931" y1="291.62" x2="332.785" y2="291.62" gradientUnits="userSpaceOnUse">
<stop stop-color="#F1F1F2"/>
<stop offset="1" stop-color="#CDCDCF"/>
</linearGradient>
<linearGradient id="paint66_linear_1282_6213" x1="332.788" y1="291.62" x2="325.637" y2="291.62" gradientUnits="userSpaceOnUse">
<stop stop-color="#F1F1F2"/>
<stop offset="1" stop-color="#CDCDCF"/>
</linearGradient>
<linearGradient id="paint67_linear_1282_6213" x1="325.635" y1="291.62" x2="318.484" y2="291.62" gradientUnits="userSpaceOnUse">
<stop stop-color="#F1F1F2"/>
<stop offset="1" stop-color="#CDCDCF"/>
</linearGradient>
<linearGradient id="paint68_linear_1282_6213" x1="318.487" y1="291.62" x2="311.335" y2="291.62" gradientUnits="userSpaceOnUse">
<stop stop-color="#F1F1F2"/>
<stop offset="1" stop-color="#CDCDCF"/>
</linearGradient>
<linearGradient id="paint69_linear_1282_6213" x1="311.338" y1="291.62" x2="304.191" y2="291.62" gradientUnits="userSpaceOnUse">
<stop stop-color="#F1F1F2"/>
<stop offset="1" stop-color="#CDCDCF"/>
</linearGradient>
<linearGradient id="paint70_linear_1282_6213" x1="304.19" y1="291.62" x2="297.038" y2="291.62" gradientUnits="userSpaceOnUse">
<stop stop-color="#F1F1F2"/>
<stop offset="1" stop-color="#CDCDCF"/>
</linearGradient>
<linearGradient id="paint71_linear_1282_6213" x1="297.034" y1="291.62" x2="289.882" y2="291.62" gradientUnits="userSpaceOnUse">
<stop stop-color="#F1F1F2"/>
<stop offset="1" stop-color="#CDCDCF"/>
</linearGradient>
<linearGradient id="paint72_linear_1282_6213" x1="289.885" y1="291.62" x2="282.733" y2="291.62" gradientUnits="userSpaceOnUse">
<stop stop-color="#F1F1F2"/>
<stop offset="1" stop-color="#CDCDCF"/>
</linearGradient>
<linearGradient id="paint73_linear_1282_6213" x1="282.728" y1="291.62" x2="275.582" y2="291.62" gradientUnits="userSpaceOnUse">
<stop stop-color="#F1F1F2"/>
<stop offset="1" stop-color="#CDCDCF"/>
</linearGradient>
<linearGradient id="paint74_linear_1282_6213" x1="275.589" y1="291.62" x2="268.437" y2="291.62" gradientUnits="userSpaceOnUse">
<stop stop-color="#F1F1F2"/>
<stop offset="1" stop-color="#CDCDCF"/>
</linearGradient>
<linearGradient id="paint75_linear_1282_6213" x1="268.432" y1="291.62" x2="261.28" y2="291.62" gradientUnits="userSpaceOnUse">
<stop stop-color="#F1F1F2"/>
<stop offset="1" stop-color="#CDCDCF"/>
</linearGradient>
<linearGradient id="paint76_linear_1282_6213" x1="261.282" y1="291.62" x2="254.136" y2="291.62" gradientUnits="userSpaceOnUse">
<stop stop-color="#F1F1F2"/>
<stop offset="1" stop-color="#CDCDCF"/>
</linearGradient>
<linearGradient id="paint77_linear_1282_6213" x1="242.456" y1="278.606" x2="245.673" y2="428.706" gradientUnits="userSpaceOnUse">
<stop stop-color="#FFB64D"/>
<stop offset="1" stop-color="#FFF4D4"/>
</linearGradient>
<linearGradient id="paint78_linear_1282_6213" x1="241.452" y1="376.4" x2="248.716" y2="467.44" gradientUnits="userSpaceOnUse">
<stop stop-color="#FFFAE9"/>
<stop offset="1" stop-color="#F6C442"/>
</linearGradient>
<linearGradient id="paint79_linear_1282_6213" x1="244.223" y1="341.687" x2="254.859" y2="457.134" gradientUnits="userSpaceOnUse">
<stop stop-color="#FFFAE9"/>
<stop offset="1" stop-color="#F7C442"/>
</linearGradient>
<linearGradient id="paint80_linear_1282_6213" x1="433.677" y1="176.914" x2="455.047" y2="212.965" gradientUnits="userSpaceOnUse">
<stop stop-color="#FFCABE"/>
<stop offset="1" stop-color="#FFDED7"/>
</linearGradient>
<linearGradient id="paint81_linear_1282_6213" x1="286.477" y1="246.622" x2="334.333" y2="282.973" gradientUnits="userSpaceOnUse">
<stop stop-color="#FFCABE"/>
<stop offset="1" stop-color="#FFDED7"/>
</linearGradient>
<linearGradient id="paint82_linear_1282_6213" x1="421.557" y1="136.855" x2="387.75" y2="202.499" gradientUnits="userSpaceOnUse">
<stop stop-color="#FFCABE"/>
<stop offset="1" stop-color="#FFDED7"/>
</linearGradient>
<linearGradient id="paint83_linear_1282_6213" x1="335.083" y1="337.183" x2="357.282" y2="374.178" gradientUnits="userSpaceOnUse">
<stop stop-color="#202020"/>
<stop offset="1" stop-color="#313234"/>
</linearGradient>
<linearGradient id="paint84_linear_1282_6213" x1="495.221" y1="160.155" x2="354.571" y2="400.677" gradientUnits="userSpaceOnUse">
<stop stop-color="#FF7563"/>
<stop offset="1" stop-color="#FFA06A"/>
<stop offset="1" stop-color="#FFA06A"/>
</linearGradient>
<linearGradient id="paint85_linear_1282_6213" x1="385.86" y1="360.883" x2="402.676" y2="380.568" gradientUnits="userSpaceOnUse">
<stop stop-color="#202020"/>
<stop offset="1" stop-color="#313234"/>
</linearGradient>
<linearGradient id="paint86_linear_1282_6213" x1="388.563" y1="329.23" x2="330.917" y2="329.23" gradientUnits="userSpaceOnUse">
<stop stop-color="#FFCABE"/>
<stop offset="1" stop-color="#FFDDD6"/>
</linearGradient>
<linearGradient id="paint87_linear_1282_6213" x1="488.886" y1="204.223" x2="377.522" y2="366.986" gradientUnits="userSpaceOnUse">
<stop stop-color="#FF7563"/>
<stop offset="1" stop-color="#FFA06A"/>
</linearGradient>
<linearGradient id="paint88_linear_1282_6213" x1="468.5" y1="236.005" x2="419.856" y2="329.551" gradientUnits="userSpaceOnUse">
<stop stop-color="#FF7563"/>
<stop offset="1" stop-color="#FFA06A"/>
</linearGradient>
<linearGradient id="paint89_linear_1282_6213" x1="512.536" y1="391.243" x2="537.018" y2="447.935" gradientUnits="userSpaceOnUse">
<stop stop-color="#FFB64D"/>
<stop offset="1" stop-color="#FFF4D4"/>
</linearGradient>
<linearGradient id="paint90_linear_1282_6213" x1="529.317" y1="209.146" x2="497.748" y2="427.536" gradientUnits="userSpaceOnUse">
<stop stop-color="#FFB64D"/>
<stop offset="1" stop-color="#FFF4D4"/>
</linearGradient>
<linearGradient id="paint91_linear_1282_6213" x1="377.904" y1="-4.39427" x2="330.873" y2="68.7204" gradientUnits="userSpaceOnUse">
<stop stop-color="#FFD0BC"/>
<stop offset="1" stop-color="#FF9E74"/>
</linearGradient>
<linearGradient id="paint92_linear_1282_6213" x1="384.557" y1="-4.69526" x2="287.817" y2="122.548" gradientUnits="userSpaceOnUse">
<stop stop-color="#FFFAE9"/>
<stop offset="1" stop-color="#FFD566"/>
</linearGradient>
<linearGradient id="paint93_linear_1282_6213" x1="270.201" y1="45.2904" x2="258.604" y2="162.539" gradientUnits="userSpaceOnUse">
<stop stop-color="#FFB64D"/>
<stop offset="1" stop-color="#FFF4D4"/>
</linearGradient>
</defs>
</svg>
