<svg width="298" height="71" viewBox="0 0 298 71" fill="none" xmlns="http://www.w3.org/2000/svg">
<path d="M53.9109 36.0101L39.4709 6.57007C37.5809 2.52007 32.6609 0.860056 28.6809 3.02006C25.0109 5.01006 23.7009 9.66007 25.4709 13.4401L34.1509 30.4801C34.6009 31.3701 34.7709 32.4101 34.4809 33.3701C34.2409 34.1701 33.7109 34.9701 32.7809 35.6001C32.7809 35.6001 29.6809 37.2601 27.8109 33.9001L14.7809 6.58005C12.8909 2.53005 7.97089 0.870066 3.99089 3.03007C0.320885 5.02007 -0.989114 9.67008 0.780886 13.4501L16.5709 48.1201C16.8309 48.6801 17.3409 49.5601 17.7309 50.0401C18.7509 51.3101 20.0609 52.3601 21.5409 53.0401C26.7209 55.4001 30.8109 52.7601 30.8109 52.7601C36.1109 49.7101 36.4509 44.7501 36.8309 40.3701C36.9109 39.4101 38.2209 39.1801 38.6309 40.0601L42.5509 48.5601C42.8809 49.2601 43.3909 49.9401 43.9009 50.5101C44.8509 51.5701 46.0009 52.4401 47.2909 53.0401C52.4809 55.4201 56.5909 52.7701 56.5909 52.7701C62.4509 49.4001 64.4009 42.0701 61.6409 34.5801C61.5409 34.3001 61.1409 34.3501 61.1009 34.6501C60.7709 37.0101 59.1309 37.7401 59.1209 37.7401C59.1209 37.7001 56.1109 39.4301 53.9109 36.0101Z" fill="url(#paint0_linear_1282_4833)"/>
<path d="M65.5309 14.56C67.7309 13.58 69.6009 11.6 69.9609 9.15004C70.1709 7.68004 70.0909 6.31004 69.4009 4.97004C68.4609 3.13004 66.6509 1.79005 64.5909 1.54005C60.8009 1.10005 57.5809 4.04005 57.5809 7.73005C57.5809 10.1801 59.0109 12.29 61.0709 13.31C61.1709 13.36 61.2409 13.47 61.2109 13.58C61.1109 14.08 60.8109 14.38 60.1209 14.59C59.8709 14.67 59.8709 15.03 60.1209 15.09C61.2009 15.39 63.1709 15.62 65.5309 14.56Z" fill="url(#paint1_linear_1282_4833)"/>
<path d="M85.1909 54.0001C79.7509 54.0001 75.1709 52.3801 71.4509 49.1401C67.7309 45.9001 65.8708 41.4401 65.8708 35.7601C65.8708 29.8401 67.6909 25.2001 71.3309 21.8401C74.9709 18.4801 79.5509 16.8 85.0709 16.8C88.9909 16.8 92.2309 17.5201 94.7909 18.9601C97.3509 20.4001 99.2709 22.2401 100.551 24.4801C101.831 26.7201 102.471 29.0801 102.471 31.5601C102.471 35.7201 100.631 37.8 96.9509 37.8H77.0309C76.3909 37.8 76.0709 38.2001 76.0709 39.0001C76.0709 40.8401 77.0909 42.3001 79.1309 43.3801C81.1709 44.4601 83.4709 45.0001 86.0309 45.0001C87.6309 45.0001 89.2309 44.7801 90.8309 44.3401C92.4309 43.9001 93.8309 43.24 95.0309 42.36C95.8309 41.8 96.6709 41.5201 97.5508 41.5201C98.7509 41.5201 99.7709 41.9601 100.611 42.8401C101.451 43.7201 101.871 44.7601 101.871 45.9601C101.871 47.4001 101.111 48.7601 99.5909 50.0401C98.1509 51.2401 96.0509 52.2001 93.2909 52.9201C90.5309 53.6401 87.8409 54.0001 85.1909 54.0001ZM91.4309 30.8401C91.5909 30.8401 91.8109 30.8001 92.0909 30.7201C92.3709 30.6401 92.5109 30.3601 92.5109 29.8801C92.5109 28.6801 91.7709 27.58 90.2909 26.58C88.8109 25.58 86.9109 25.08 84.5909 25.08C82.1109 25.08 80.0909 25.6201 78.5309 26.7001C76.9709 27.7801 76.1909 28.8801 76.1909 30.0001C76.1909 30.5601 76.5109 30.8401 77.1509 30.8401H91.4309Z" fill="black"/>
<path d="M124.611 54.0001C121.091 54.0001 118.131 52.9201 115.731 50.7601V65.4001C115.731 66.7601 115.231 67.9001 114.231 68.8201C113.231 69.7401 112.011 70.2001 110.571 70.2001C109.051 70.2001 107.771 69.7601 106.731 68.8801C105.691 68.0001 105.171 66.8801 105.171 65.5201V22.08C105.171 20.8 105.671 19.7001 106.671 18.7801C107.671 17.8601 108.971 17.4001 110.571 17.4001C111.771 17.4001 112.811 17.72 113.691 18.36C114.571 19 115.171 19.8001 115.491 20.7601C118.211 18.1201 121.371 16.8 124.971 16.8C130.251 16.8 134.471 18.4601 137.631 21.7801C140.791 25.1001 142.371 29.6001 142.371 35.2801C142.371 40.9601 140.771 45.5001 137.571 48.9001C134.371 52.3001 130.051 54.0001 124.611 54.0001ZM123.771 44.2801C126.251 44.2801 128.231 43.4201 129.711 41.7001C131.191 39.9801 131.931 37.8401 131.931 35.2801C131.931 32.6401 131.191 30.5201 129.711 28.9201C128.231 27.3201 126.251 26.5201 123.771 26.5201C121.371 26.5201 119.431 27.3201 117.951 28.9201C116.471 30.5201 115.731 32.6401 115.731 35.2801C115.731 37.8401 116.471 39.9801 117.951 41.7001C119.431 43.4201 121.371 44.2801 123.771 44.2801Z" fill="black"/>
<path d="M164.391 54.0001C158.951 54.0001 154.371 52.3801 150.651 49.1401C146.931 45.9001 145.071 41.4401 145.071 35.7601C145.071 29.8401 146.891 25.2001 150.531 21.8401C154.171 18.4801 158.751 16.8 164.271 16.8C168.191 16.8 171.431 17.5201 173.991 18.9601C176.551 20.4001 178.471 22.2401 179.751 24.4801C181.031 26.7201 181.671 29.0801 181.671 31.5601C181.671 35.7201 179.831 37.8 176.151 37.8H156.231C155.591 37.8 155.271 38.2001 155.271 39.0001C155.271 40.8401 156.291 42.3001 158.331 43.3801C160.371 44.4601 162.671 45.0001 165.231 45.0001C166.831 45.0001 168.431 44.7801 170.031 44.3401C171.631 43.9001 173.031 43.24 174.231 42.36C175.031 41.8 175.871 41.5201 176.751 41.5201C177.951 41.5201 178.971 41.9601 179.811 42.8401C180.651 43.7201 181.071 44.7601 181.071 45.9601C181.071 47.4001 180.311 48.7601 178.791 50.0401C177.351 51.2401 175.251 52.2001 172.491 52.9201C169.731 53.6401 167.031 54.0001 164.391 54.0001ZM170.631 30.8401C170.791 30.8401 171.011 30.8001 171.291 30.7201C171.571 30.6401 171.711 30.3601 171.711 29.8801C171.711 28.6801 170.971 27.58 169.491 26.58C168.011 25.58 166.111 25.08 163.791 25.08C161.311 25.08 159.291 25.6201 157.731 26.7001C156.171 27.7801 155.391 28.8801 155.391 30.0001C155.391 30.5601 155.711 30.8401 156.351 30.8401H170.631Z" fill="black"/>
<path d="M203.991 54.0001C198.551 54.0001 193.971 52.3801 190.251 49.1401C186.531 45.9001 184.671 41.4401 184.671 35.7601C184.671 29.8401 186.491 25.2001 190.131 21.8401C193.771 18.4801 198.351 16.8 203.871 16.8C207.791 16.8 211.031 17.5201 213.591 18.9601C216.151 20.4001 218.071 22.2401 219.351 24.4801C220.631 26.7201 221.271 29.0801 221.271 31.5601C221.271 35.7201 219.431 37.8 215.751 37.8H195.831C195.191 37.8 194.871 38.2001 194.871 39.0001C194.871 40.8401 195.891 42.3001 197.931 43.3801C199.971 44.4601 202.271 45.0001 204.831 45.0001C206.431 45.0001 208.031 44.7801 209.631 44.3401C211.231 43.9001 212.631 43.24 213.831 42.36C214.631 41.8 215.471 41.5201 216.351 41.5201C217.551 41.5201 218.571 41.9601 219.411 42.8401C220.251 43.7201 220.671 44.7601 220.671 45.9601C220.671 47.4001 219.911 48.7601 218.391 50.0401C216.951 51.2401 214.851 52.2001 212.091 52.9201C209.331 53.6401 206.631 54.0001 203.991 54.0001ZM210.231 30.8401C210.391 30.8401 210.611 30.8001 210.891 30.7201C211.171 30.6401 211.311 30.3601 211.311 29.8801C211.311 28.6801 210.571 27.58 209.091 26.58C207.611 25.58 205.711 25.08 203.391 25.08C200.911 25.08 198.891 25.6201 197.331 26.7001C195.771 27.7801 194.991 28.8801 194.991 30.0001C194.991 30.5601 195.311 30.8401 195.951 30.8401H210.231Z" fill="black"/>
<path d="M243.251 54.0001C239.891 54.0001 236.751 53.2401 233.831 51.7201C230.911 50.2001 228.571 48.0001 226.811 45.1201C225.051 42.2401 224.171 38.8 224.171 34.8C224.251 29.28 226.051 24.9001 229.571 21.6601C233.091 18.4201 237.651 16.8 243.251 16.8C245.411 16.8 247.531 17.0401 249.611 17.5201C251.691 18.0001 253.491 18.8801 255.011 20.1601C256.211 21.1201 256.811 22.3601 256.811 23.8801C256.811 25.1601 256.351 26.32 255.431 27.36C254.511 28.4 253.371 28.9201 252.011 28.9201C251.131 28.9201 250.331 28.6801 249.611 28.2001C248.411 27.5601 247.351 27.1201 246.431 26.8801C245.511 26.6401 244.491 26.5201 243.371 26.5201C240.731 26.5201 238.571 27.28 236.891 28.8C235.211 30.32 234.371 32.3601 234.371 34.9201C234.371 37.8801 235.291 40.1801 237.131 41.8201C238.971 43.4601 241.131 44.2801 243.611 44.2801C246.411 44.2801 249.051 43.2401 251.531 41.1601C252.491 40.4401 253.411 40.08 254.291 40.08C255.571 40.08 256.671 40.6001 257.591 41.6401C258.511 42.6801 258.971 43.8801 258.971 45.2401C258.971 45.8001 258.851 46.4201 258.611 47.1001C258.371 47.7801 257.931 48.44 257.291 49.08C255.131 50.84 252.831 52.1 250.391 52.86C247.951 53.62 245.571 54.0001 243.251 54.0001Z" fill="black"/>
<path d="M292.581 54.0099C295.503 54.0099 297.871 51.6415 297.871 48.7199C297.871 45.7984 295.503 43.4299 292.581 43.4299C289.659 43.4299 287.291 45.7984 287.291 48.7199C287.291 51.6415 289.659 54.0099 292.581 54.0099Z" fill="url(#paint2_linear_1282_4833)"/>
<path d="M287.311 34.68V42.69C287.311 43.07 287.721 43.31 288.051 43.12C289.381 42.35 290.931 41.9 292.581 41.9C294.241 41.9 295.791 42.35 297.121 43.13C297.451 43.32 297.861 43.08 297.861 42.7V33.36C297.861 27.6 296.481 23.4 293.721 20.76C290.961 18.12 287.341 16.8 282.861 16.8C280.861 16.8 278.981 17.16 277.221 17.88C275.461 18.6 274.061 19.56 273.021 20.76V4.79999C273.021 3.43999 272.541 2.3 271.581 1.38C270.621 0.460005 269.381 0 267.861 0C266.261 0 264.961 0.460005 263.961 1.38C262.961 2.3 262.461 3.39999 262.461 4.67999V49.18C262.461 50.52 263.011 51.83 264.041 52.69C265.071 53.56 266.351 53.99 267.861 53.99C269.281 53.99 270.481 53.54 271.471 52.65C272.481 51.74 273.021 50.41 273.021 49.05V32.75C273.421 31.15 274.261 29.69 275.541 28.37C276.821 27.05 278.461 26.39 280.461 26.39C282.381 26.39 284.001 27.03 285.321 28.31C286.651 29.6 287.311 31.72 287.311 34.68Z" fill="black"/>
<defs>
<linearGradient id="paint0_linear_1282_4833" x1="-0.00761438" y1="28.0335" x2="62.8737" y2="28.0335" gradientUnits="userSpaceOnUse">
<stop offset="0.000470035" stop-color="#FF7640"/>
<stop offset="0.9995" stop-color="#FF530F"/>
</linearGradient>
<linearGradient id="paint1_linear_1282_4833" x1="57.5746" y1="8.42154" x2="70.0591" y2="8.42154" gradientUnits="userSpaceOnUse">
<stop offset="0.000470035" stop-color="#FF7640"/>
<stop offset="0.9995" stop-color="#FF530F"/>
</linearGradient>
<linearGradient id="paint2_linear_1282_4833" x1="287.296" y1="48.7162" x2="297.867" y2="48.7162" gradientUnits="userSpaceOnUse">
<stop offset="0.000470035" stop-color="#FF7640"/>
<stop offset="0.9995" stop-color="#FF530F"/>
</linearGradient>
</defs>
</svg>
