<svg width="217" height="96" viewBox="0 0 217 96" fill="none" xmlns="http://www.w3.org/2000/svg">
<path d="M130.066 27.2671L124.169 29.4229L117.395 27.5695L118.752 24.0916L126.829 23.6534L130.066 27.2671Z" fill="url(#paint0_linear_1282_5637)"/>
<path d="M118.671 27.2106C119.415 27.4916 121.432 26.745 122.492 24.6255L119.074 23.6534C118.661 24.7277 117.928 26.9296 118.671 27.2106Z" fill="#FFBDAF"/>
<path d="M119.073 27.5997C120.962 28.3763 123.013 28.676 125.046 28.4724C128.183 28.0714 131.168 27.8868 132.999 26.9999C134.829 26.113 142.998 31.4999 146.629 37.8255C149.928 43.5719 153.33 50.7289 150.499 57.9999C145.795 70.0768 130.89 65.1701 126.498 62.4999C123.709 60.7673 119.991 57.6136 117.728 55.2337H97.9982C97.9982 55.2337 96.2465 44.298 99.9981 38.4999C105.498 29.9999 113.998 26.9999 113.998 26.9999L117.318 26.4769C117.847 26.9324 118.438 27.3104 119.073 27.5997Z" fill="url(#paint1_linear_1282_5637)"/>
<path d="M109.742 55.337H108.527L99.9297 32.3977H102.114C102.491 32.3979 102.857 32.5218 103.157 32.7504C103.456 32.979 103.673 33.2996 103.772 33.663L109.742 55.337Z" fill="url(#paint2_linear_1282_5637)"/>
<path d="M108.525 55.335H71.6667L66.0741 34.9991C65.9898 34.6937 65.9772 34.373 66.0374 34.0621C66.0976 33.7511 66.2288 33.4582 66.4209 33.2064C66.613 32.9545 66.8607 32.7505 67.1447 32.6102C67.4287 32.47 67.7413 32.3973 68.0581 32.3978H100.084C100.697 32.3979 101.293 32.5992 101.781 32.9707C102.269 33.3422 102.621 33.8635 102.784 34.4546L108.525 55.335Z" fill="url(#paint3_linear_1282_5637)"/>
<path d="M109.082 54.1373H119.222C119.381 54.1373 119.534 54.2005 119.646 54.3129C119.759 54.4254 119.822 54.5779 119.822 54.7369C119.822 54.896 119.759 55.0485 119.646 55.1609C119.534 55.2734 119.381 55.3365 119.222 55.3365H109.082V54.1395V54.1373Z" fill="url(#paint4_linear_1282_5637)"/>
<path d="M85.3814 46.5875C86.7182 46.5875 87.8019 45.5038 87.8019 44.1671C87.8019 42.8303 86.7182 41.7466 85.3814 41.7466C84.0446 41.7466 82.9609 42.8303 82.9609 44.1671C82.9609 45.5038 84.0446 46.5875 85.3814 46.5875Z" fill="white"/>
<path d="M109.472 38.2593C108.491 38.8382 109.098 42.0994 110.76 44.5442C112.589 47.2353 119.116 50.2503 120.358 50.4663C121.601 50.6822 123.273 47.3809 123.273 47.3809C123.273 47.3809 119.303 39.5163 117.794 39.7539C116.692 39.9267 117.432 42.0994 117.295 42.4233C117.158 42.7473 114.747 41.3564 114.011 40.5573C113.375 39.8576 111.322 37.1622 109.472 38.2593Z" fill="#FFDED7"/>
<path d="M136.368 45.49C140.499 47 142.966 51.0112 143.499 52.5L143.44 53.4997L126.384 45.7238C127.694 45.0675 133.006 44.2613 136.368 45.49Z" fill="#FF6D4D"/>
<path d="M129.587 65.9518C126.708 64.63 124.415 62.3199 122.226 60.0537C122.226 60.0537 118.76 55.9099 118.033 53.8334C117.634 52.6941 120.976 48.2196 122.226 46.3914C123.477 44.5631 125.023 44.9623 126.318 45.2457C128.468 45.7161 133.593 46.463 137.418 48.2375C141.597 50.176 145.045 52.8026 147.105 55.9287C150.076 60.435 145.267 67.741 138.326 67.9968C136.27 68.0726 131.425 66.7955 129.587 65.9518Z" fill="url(#paint5_linear_1282_5637)"/>
<path d="M123.569 0C123.569 0 127.471 2.40349e-06 130.385 1.65956C133.299 3.31911 137.027 7.32633 138.776 13.8026C140.525 20.279 141.195 24.9811 137.698 27.4502C134.937 29.3972 130.909 30.1448 127.67 27.8597C126.453 27.0012 125.767 24.3914 125.811 23.3633C125.856 22.3352 118.764 24.529 118.764 24.529C118.764 24.529 119.144 27.321 117.007 28.4062C115.151 29.3486 111.797 28.9646 110.382 26.8688C109.321 25.2983 109.839 22.0599 110.106 21.0764C110.497 19.2857 110.712 17.493 110.86 15.6664C110.905 14.5451 110.775 10.8717 110.96 9.81162C111.128 8.84663 112.215 5.14058 114.502 3.19364C116.789 1.2467 119.169 0.267148 123.569 0Z" fill="#191919"/>
<path d="M111.586 14.7175C111.586 20.8983 115.787 25.5977 121.41 25.5977C127.032 25.5977 131.594 20.5988 131.594 14.4018C131.594 8.20477 127.036 3.19373 121.41 3.19373C115.783 3.19373 111.586 8.53264 111.586 14.7175Z" fill="url(#paint6_linear_1282_5637)"/>
<path d="M118.162 9.30975C119.901 10.9311 121.914 12.2304 124.108 13.147C126.066 13.9382 128.115 14.4821 130.208 14.7661L133.17 14.4058C133.17 14.4058 134.385 9.51619 131.596 6.1485C128.807 2.78082 120.874 1.48557 119.53 1.93081C118.186 2.37606 112.981 5.83684 112.127 8.07926C111.272 10.3217 111.317 13.406 111.317 13.406C111.669 13.3876 112.017 13.3236 112.353 13.2158C113.244 12.9648 115.737 12.2686 118.162 9.30975Z" fill="#191919"/>
<path d="M132.483 20.7636C130.246 20.9725 128.231 18.9838 127.982 16.3218C127.734 13.6597 129.346 11.3324 131.583 11.1235C133.819 10.9146 135.834 12.9033 136.083 15.5653C136.332 18.2274 134.72 20.5547 132.483 20.7636Z" fill="url(#paint7_linear_1282_5637)"/>
<path d="M121.906 16.2372C121.857 15.6625 122.137 15.1695 122.532 15.1361C122.926 15.1028 123.285 15.5416 123.334 16.1163C123.382 16.691 123.102 17.1839 122.708 17.2173C122.314 17.2507 121.955 16.8119 121.906 16.2372Z" fill="#191919"/>
<path d="M114.855 16.8308C114.807 16.2561 115.087 15.7632 115.481 15.7298C115.875 15.6964 116.234 16.1352 116.283 16.7099C116.332 17.2846 116.051 17.7776 115.657 17.8109C115.263 17.8443 114.904 17.4055 114.855 16.8308Z" fill="#191919"/>
<path d="M118.981 16.288C118.831 16.6941 118.627 17.0781 118.374 17.4294C118.303 17.5039 118.251 17.5945 118.222 17.6934C118.193 17.7923 118.188 17.8968 118.208 17.9979C118.228 18.0991 118.271 18.194 118.336 18.2747C118.4 18.3554 118.482 18.4195 118.577 18.4616C118.796 18.5838 119.042 18.6531 119.293 18.664" stroke="#191919" stroke-width="0.6" stroke-linecap="round" stroke-linejoin="round"/>
<path d="M123.622 19.7445C123.63 19.6804 123.622 19.6155 123.599 19.5552C123.576 19.4949 123.539 19.4409 123.491 19.3977C123.443 19.3546 123.386 19.3235 123.323 19.3071C123.261 19.2906 123.196 19.2893 123.133 19.3033C122.262 19.4935 120.732 19.5988 119.894 19.7283C119.133 19.8457 117.498 19.9793 116.753 20.0886C116.684 20.099 116.619 20.1273 116.564 20.1706C116.509 20.2139 116.466 20.2708 116.439 20.3356C116.413 20.4005 116.403 20.4712 116.412 20.5407C116.421 20.6102 116.448 20.6761 116.49 20.7321C116.976 21.3514 117.976 22.3188 120.004 22.2743C122.359 22.2176 123.363 20.9669 123.622 19.7445Z" fill="white"/>
<path d="M131.715 12.9441C130.757 10.0264 126.684 4.92534 121.485 4.68345C116.286 4.44156 113.206 8.13845 112.685 9.39789" stroke="#FF7C64" stroke-width="1.4" stroke-linecap="round"/>
<rect x="0.5" y="54.5" width="216" height="41" rx="20.5" fill="white" stroke="#FF5912"/>
<path d="M47.912 66.656H45.8V74.08H47.912V66.656ZM44.728 72.256C42.344 71.552 41.288 69.84 41.288 68.096V66.992H39.144V68.096C39.144 69.888 38.072 71.744 35.624 72.496L36.648 74.144C38.376 73.616 39.576 72.496 40.248 71.104C40.904 72.384 42.04 73.408 43.72 73.904L44.728 72.256ZM40.216 79.632V78.72H47.928V74.736H38.104V76.352H45.832V77.216H38.12V81.264H48.296V79.632H40.216ZM55.6388 67.776H53.5268V69.92C53.5268 72.784 52.3108 75.632 49.7348 76.736L50.9988 78.48C52.7588 77.648 53.9588 76.064 54.6148 74.096C55.2708 75.904 56.4068 77.36 58.1028 78.128L59.3028 76.416C56.8068 75.344 55.6388 72.656 55.6388 69.92V67.776ZM60.0228 66.624V81.408H62.1348V66.624H60.0228ZM64.6935 67.744V69.424H69.4935C69.1575 71.488 67.3335 73.2 64.0535 74.096L64.9335 75.776C69.3175 74.512 71.7815 71.744 71.7815 67.744H64.6935ZM68.3575 76.128H66.2455V81.12H76.2615V79.44H68.3575V76.128ZM75.7495 70.752V66.64H73.6375V77.184H75.7495V72.48H77.7175V70.752H75.7495ZM89.6366 78.048V75.6H93.8286V73.936H85.6206V72.4H93.3806V70.768H85.6206V69.328H93.7166V67.648H83.4766V75.6H87.5246V78.048H81.9086V79.76H95.2526V78.048H89.6366ZM99.9394 77.216H97.8274V81.472H108.195V79.792H99.9394V77.216ZM103.875 74.8V73.68H108.147V72.08H99.8914V71.056H107.859V66.96H97.7794V68.56H105.779V69.568H97.8114V73.68H101.763V74.8H96.1474V76.48H109.491V74.8H103.875ZM114.642 76.64C113.65 76.64 112.914 75.968 112.914 74.848C112.914 73.728 113.65 73.04 114.642 73.04C115.634 73.04 116.354 73.728 116.354 74.832C116.354 75.968 115.634 76.64 114.642 76.64ZM114.642 71.328C112.498 71.328 110.898 72.784 110.898 74.832C110.898 76.912 112.498 78.368 114.642 78.368C116.77 78.368 118.354 76.912 118.354 74.832C118.354 72.784 116.77 71.328 114.642 71.328ZM115.682 66.896H113.57V68.816H110.306V70.496H118.882V68.816H115.682V66.896ZM124.066 72.4H121.954V66.64H119.842V81.376H121.954V74.144H124.066V72.4ZM127.217 73.408H131.745V67.888H125.105V69.568H129.649V71.76H125.137V78H126.353C128.801 78 130.753 77.92 132.945 77.568L132.753 75.856C130.897 76.16 129.217 76.256 127.217 76.272V73.408ZM134.833 66.624V71.936H132.529V73.648H134.833V81.408H136.961V66.624H134.833ZM143.04 68.144V69.856H147.856C147.472 73.12 145.648 75.456 142.224 77.216L143.408 78.832C148.304 76.352 149.984 72.56 149.984 68.144H143.04ZM155.968 72.256H153.904V66.624H151.792V81.344H153.904V74H155.968V72.256ZM157.423 68.16V69.84H162.335C162.031 73.104 160.399 75.408 156.639 77.216L157.743 78.88C162.975 76.352 164.495 72.672 164.495 68.16H157.423ZM166.751 66.624V81.36H168.879V66.624H166.751Z" fill="#FF5912"/>
<path d="M185 68L191 74L185 80" stroke="#FF5912" stroke-linecap="round" stroke-linejoin="round"/>
<defs>
<linearGradient id="paint0_linear_1282_5637" x1="118.592" y1="25.3935" x2="131.57" y2="28.0071" gradientUnits="userSpaceOnUse">
<stop stop-color="#FFCABE"/>
<stop offset="1" stop-color="#FFDED7"/>
</linearGradient>
<linearGradient id="paint1_linear_1282_5637" x1="116.792" y1="26.0585" x2="145.656" y2="62.7555" gradientUnits="userSpaceOnUse">
<stop stop-color="#FF7563"/>
<stop offset="1" stop-color="#FFA06A"/>
</linearGradient>
<linearGradient id="paint2_linear_1282_5637" x1="99.9363" y1="43.8674" x2="109.742" y2="43.8674" gradientUnits="userSpaceOnUse">
<stop stop-color="#303E9F"/>
<stop offset="1" stop-color="#4A0094"/>
</linearGradient>
<linearGradient id="paint3_linear_1282_5637" x1="89.3441" y1="26.2893" x2="87.208" y2="45.3136" gradientUnits="userSpaceOnUse">
<stop stop-color="#F1F1F2"/>
<stop offset="1" stop-color="#D5DCE3"/>
</linearGradient>
<linearGradient id="paint4_linear_1282_5637" x1="120.822" y1="54.7369" x2="106.756" y2="54.7369" gradientUnits="userSpaceOnUse">
<stop stop-color="#303E9F"/>
<stop offset="1" stop-color="#4A0094"/>
</linearGradient>
<linearGradient id="paint5_linear_1282_5637" x1="118" y1="37.7738" x2="132.621" y2="68.1826" gradientUnits="userSpaceOnUse">
<stop stop-color="#FF7563"/>
<stop offset="1" stop-color="#FFA06A"/>
</linearGradient>
<linearGradient id="paint6_linear_1282_5637" x1="114.602" y1="24.1707" x2="128.338" y2="15.0914" gradientUnits="userSpaceOnUse">
<stop stop-color="#FFCABE"/>
<stop offset="1" stop-color="#FFDED7"/>
</linearGradient>
<linearGradient id="paint7_linear_1282_5637" x1="128.672" y1="10.4224" x2="134.95" y2="25.5711" gradientUnits="userSpaceOnUse">
<stop stop-color="#FF7563"/>
<stop offset="1" stop-color="#FFA06A"/>
</linearGradient>
</defs>
</svg>
