<svg width="217" height="96" viewBox="0 0 217 96" fill="none" xmlns="http://www.w3.org/2000/svg">
<path d="M173.066 27.2671L167.169 29.4229L160.395 27.5695L161.752 24.0916L169.829 23.6534L173.066 27.2671Z" fill="url(#paint0_linear_1282_5565)"/>
<path d="M161.671 27.2106C162.415 27.4916 164.432 26.745 165.492 24.6255L162.074 23.6534C161.661 24.7277 160.928 26.9296 161.671 27.2106Z" fill="#FFBDAF"/>
<path d="M162.073 27.5997C163.962 28.3763 166.013 28.676 168.046 28.4724C171.183 28.0714 174.168 27.8868 175.999 26.9999C177.829 26.113 185.998 31.4999 189.629 37.8255C192.928 43.5719 196.33 50.7289 193.499 57.9999C188.795 70.0768 173.89 65.1701 169.498 62.4999C166.709 60.7673 162.991 57.6136 160.728 55.2337H140.998C140.998 55.2337 139.246 44.298 142.998 38.4999C148.498 29.9999 156.998 26.9999 156.998 26.9999L160.318 26.4769C160.847 26.9324 161.438 27.3104 162.073 27.5997Z" fill="url(#paint1_linear_1282_5565)"/>
<path d="M152.742 55.3371H151.527L142.93 32.3978H145.114C145.491 32.3979 145.857 32.5218 146.157 32.7505C146.456 32.9791 146.673 33.2997 146.772 33.6631L152.742 55.3371Z" fill="url(#paint2_linear_1282_5565)"/>
<path d="M151.525 55.335H114.667L109.074 34.9991C108.99 34.6938 108.977 34.3731 109.037 34.0621C109.098 33.7511 109.229 33.4583 109.421 33.2064C109.613 32.9546 109.861 32.7505 110.145 32.6103C110.429 32.47 110.741 32.3973 111.058 32.3979H143.084C143.697 32.398 144.293 32.5992 144.781 32.9707C145.269 33.3422 145.621 33.8635 145.784 34.4546L151.525 55.335Z" fill="url(#paint3_linear_1282_5565)"/>
<path d="M152.082 54.1374H162.222C162.381 54.1374 162.534 54.2006 162.646 54.313C162.759 54.4255 162.822 54.578 162.822 54.737C162.822 54.896 162.759 55.0485 162.646 55.161C162.534 55.2734 162.381 55.3366 162.222 55.3366H152.082V54.1396V54.1374Z" fill="url(#paint4_linear_1282_5565)"/>
<path d="M128.381 46.5876C129.718 46.5876 130.802 45.5039 130.802 44.1671C130.802 42.8303 129.718 41.7466 128.381 41.7466C127.045 41.7466 125.961 42.8303 125.961 44.1671C125.961 45.5039 127.045 46.5876 128.381 46.5876Z" fill="white"/>
<path d="M152.472 38.2593C151.491 38.8381 152.098 42.0994 153.76 44.5442C155.589 47.2352 162.116 50.2502 163.358 50.4662C164.601 50.6822 166.273 47.3809 166.273 47.3809C166.273 47.3809 162.303 39.5163 160.794 39.7539C159.692 39.9266 160.432 42.0994 160.295 42.4233C160.158 42.7473 157.747 41.3564 157.011 40.5573C156.375 39.8575 154.322 37.1622 152.472 38.2593Z" fill="#FFDED7"/>
<path d="M179.368 45.49C183.499 47 185.966 51.0112 186.499 52.5L186.44 53.4997L169.384 45.7239C170.694 45.0676 176.006 44.2613 179.368 45.49Z" fill="#FF6D4D"/>
<path d="M172.587 65.9518C169.708 64.63 167.415 62.3199 165.226 60.0537C165.226 60.0537 161.76 55.9099 161.033 53.8334C160.634 52.694 163.976 48.2196 165.226 46.3913C166.477 44.5631 168.023 44.9623 169.318 45.2457C171.468 45.716 176.593 46.4629 180.418 48.2375C184.597 50.1759 188.045 52.8026 190.105 55.9286C193.076 60.435 188.267 67.741 181.326 67.9967C179.27 68.0725 174.425 66.7955 172.587 65.9518Z" fill="url(#paint5_linear_1282_5565)"/>
<path d="M166.569 -3.05176e-05C166.569 -3.05176e-05 170.471 -2.81141e-05 173.385 1.65953C176.299 3.31908 180.027 7.3263 181.776 13.8026C183.525 20.2789 184.195 24.9811 180.698 27.4502C177.937 29.3971 173.909 30.1447 170.67 27.8597C169.453 27.0012 168.767 24.3914 168.811 23.3633C168.856 22.3352 161.764 24.529 161.764 24.529C161.764 24.529 162.144 27.321 160.007 28.4062C158.151 29.3485 154.797 28.9645 153.382 26.8688C152.321 25.2983 152.839 22.0599 153.106 21.0763C153.497 19.2857 153.712 17.493 153.86 15.6663C153.905 14.5451 153.775 10.8717 153.96 9.81159C154.128 8.84659 155.215 5.14055 157.502 3.19361C159.789 1.24667 162.169 0.267117 166.569 -3.05176e-05Z" fill="#191919"/>
<path d="M154.586 14.7175C154.586 20.8984 158.787 25.5978 164.41 25.5978C170.032 25.5978 174.594 20.5988 174.594 14.4018C174.594 8.2048 170.036 3.19376 164.41 3.19376C158.783 3.19376 154.586 8.53267 154.586 14.7175Z" fill="url(#paint6_linear_1282_5565)"/>
<path d="M161.162 9.30972C162.901 10.9311 164.914 12.2304 167.108 13.1469C169.066 13.9381 171.115 14.482 173.208 14.766L176.17 14.4058C176.17 14.4058 177.385 9.51616 174.596 6.14847C171.807 2.78079 163.874 1.48554 162.53 1.93078C161.186 2.37603 155.981 5.83681 155.127 8.07923C154.272 10.3217 154.317 13.406 154.317 13.406C154.669 13.3875 155.017 13.3236 155.353 13.2158C156.244 12.9648 158.737 12.2686 161.162 9.30972Z" fill="#191919"/>
<path d="M175.483 20.7636C173.246 20.9724 171.231 18.9838 170.982 16.3217C170.734 13.6597 172.346 11.3323 174.583 11.1234C176.819 10.9145 178.834 12.9032 179.083 15.5653C179.332 18.2273 177.72 20.5547 175.483 20.7636Z" fill="url(#paint7_linear_1282_5565)"/>
<path d="M164.906 16.2372C164.857 15.6625 165.137 15.1696 165.532 15.1362C165.926 15.1028 166.285 15.5416 166.334 16.1163C166.382 16.691 166.102 17.184 165.708 17.2173C165.314 17.2507 164.955 16.8119 164.906 16.2372Z" fill="#191919"/>
<path d="M157.855 16.8308C157.807 16.2561 158.087 15.7631 158.481 15.7297C158.875 15.6964 159.234 16.1352 159.283 16.7099C159.332 17.2846 159.051 17.7775 158.657 17.8109C158.263 17.8443 157.904 17.4055 157.855 16.8308Z" fill="#191919"/>
<path d="M161.981 16.2879C161.831 16.6941 161.627 17.0781 161.374 17.4294C161.303 17.5039 161.251 17.5944 161.222 17.6934C161.193 17.7923 161.188 17.8968 161.208 17.9979C161.228 18.0991 161.271 18.194 161.336 18.2747C161.4 18.3554 161.482 18.4194 161.577 18.4615C161.796 18.5837 162.042 18.653 162.293 18.6639" stroke="#191919" stroke-width="0.6" stroke-linecap="round" stroke-linejoin="round"/>
<path d="M166.622 19.7445C166.63 19.6804 166.622 19.6155 166.599 19.5552C166.576 19.4949 166.539 19.4409 166.491 19.3977C166.443 19.3546 166.386 19.3235 166.323 19.3071C166.261 19.2906 166.196 19.2893 166.133 19.3033C165.262 19.4935 163.732 19.5988 162.894 19.7283C162.133 19.8457 160.498 19.9793 159.753 20.0886C159.684 20.099 159.619 20.1273 159.564 20.1706C159.509 20.2139 159.466 20.2708 159.439 20.3356C159.413 20.4005 159.403 20.4712 159.412 20.5407C159.421 20.6102 159.448 20.6761 159.49 20.7321C159.976 21.3514 160.976 22.3188 163.004 22.2743C165.359 22.2176 166.363 20.9669 166.622 19.7445Z" fill="white"/>
<path d="M174.715 12.9441C173.757 10.0264 169.684 4.92531 164.485 4.68342C159.286 4.44153 156.206 8.13842 155.685 9.39786" stroke="#FF7C64" stroke-width="1.4" stroke-linecap="round"/>
<rect x="0.5" y="54.5" width="216" height="41" rx="20.5" fill="white" stroke="#FF5912"/>
<path d="M47.912 66.656H45.8V74.08H47.912V66.656ZM44.728 72.256C42.344 71.552 41.288 69.84 41.288 68.096V66.992H39.144V68.096C39.144 69.888 38.072 71.744 35.624 72.496L36.648 74.144C38.376 73.616 39.576 72.496 40.248 71.104C40.904 72.384 42.04 73.408 43.72 73.904L44.728 72.256ZM40.216 79.632V78.72H47.928V74.736H38.104V76.352H45.832V77.216H38.12V81.264H48.296V79.632H40.216ZM55.6388 67.776H53.5268V69.92C53.5268 72.784 52.3108 75.632 49.7348 76.736L50.9988 78.48C52.7588 77.648 53.9588 76.064 54.6148 74.096C55.2708 75.904 56.4068 77.36 58.1028 78.128L59.3028 76.416C56.8068 75.344 55.6388 72.656 55.6388 69.92V67.776ZM60.0228 66.624V81.408H62.1348V66.624H60.0228ZM64.6935 67.744V69.424H69.4935C69.1575 71.488 67.3335 73.2 64.0535 74.096L64.9335 75.776C69.3175 74.512 71.7815 71.744 71.7815 67.744H64.6935ZM68.3575 76.128H66.2455V81.12H76.2615V79.44H68.3575V76.128ZM75.7495 70.752V66.64H73.6375V77.184H75.7495V72.48H77.7175V70.752H75.7495ZM89.6366 78.048V75.6H93.8286V73.936H85.6206V72.4H93.3806V70.768H85.6206V69.328H93.7166V67.648H83.4766V75.6H87.5246V78.048H81.9086V79.76H95.2526V78.048H89.6366ZM99.9394 77.216H97.8274V81.472H108.195V79.792H99.9394V77.216ZM103.875 74.8V73.68H108.147V72.08H99.8914V71.056H107.859V66.96H97.7794V68.56H105.779V69.568H97.8114V73.68H101.763V74.8H96.1474V76.48H109.491V74.8H103.875ZM114.642 76.64C113.65 76.64 112.914 75.968 112.914 74.848C112.914 73.728 113.65 73.04 114.642 73.04C115.634 73.04 116.354 73.728 116.354 74.832C116.354 75.968 115.634 76.64 114.642 76.64ZM114.642 71.328C112.498 71.328 110.898 72.784 110.898 74.832C110.898 76.912 112.498 78.368 114.642 78.368C116.77 78.368 118.354 76.912 118.354 74.832C118.354 72.784 116.77 71.328 114.642 71.328ZM115.682 66.896H113.57V68.816H110.306V70.496H118.882V68.816H115.682V66.896ZM124.066 72.4H121.954V66.64H119.842V81.376H121.954V74.144H124.066V72.4ZM127.217 73.408H131.745V67.888H125.105V69.568H129.649V71.76H125.137V78H126.353C128.801 78 130.753 77.92 132.945 77.568L132.753 75.856C130.897 76.16 129.217 76.256 127.217 76.272V73.408ZM134.833 66.624V71.936H132.529V73.648H134.833V81.408H136.961V66.624H134.833ZM143.04 68.144V69.856H147.856C147.472 73.12 145.648 75.456 142.224 77.216L143.408 78.832C148.304 76.352 149.984 72.56 149.984 68.144H143.04ZM155.968 72.256H153.904V66.624H151.792V81.344H153.904V74H155.968V72.256ZM157.423 68.16V69.84H162.335C162.031 73.104 160.399 75.408 156.639 77.216L157.743 78.88C162.975 76.352 164.495 72.672 164.495 68.16H157.423ZM166.751 66.624V81.36H168.879V66.624H166.751Z" fill="#FF5912"/>
<path d="M185 68L191 74L185 80" stroke="#FF5912" stroke-linecap="round" stroke-linejoin="round"/>
<defs>
<linearGradient id="paint0_linear_1282_5565" x1="161.592" y1="25.3935" x2="174.57" y2="28.0071" gradientUnits="userSpaceOnUse">
<stop stop-color="#FFCABE"/>
<stop offset="1" stop-color="#FFDED7"/>
</linearGradient>
<linearGradient id="paint1_linear_1282_5565" x1="159.792" y1="26.0585" x2="188.656" y2="62.7555" gradientUnits="userSpaceOnUse">
<stop stop-color="#FF7563"/>
<stop offset="1" stop-color="#FFA06A"/>
</linearGradient>
<linearGradient id="paint2_linear_1282_5565" x1="142.936" y1="43.8675" x2="152.742" y2="43.8675" gradientUnits="userSpaceOnUse">
<stop stop-color="#303E9F"/>
<stop offset="1" stop-color="#4A0094"/>
</linearGradient>
<linearGradient id="paint3_linear_1282_5565" x1="132.344" y1="26.2894" x2="130.208" y2="45.3136" gradientUnits="userSpaceOnUse">
<stop stop-color="#F1F1F2"/>
<stop offset="1" stop-color="#D5DCE3"/>
</linearGradient>
<linearGradient id="paint4_linear_1282_5565" x1="163.822" y1="54.737" x2="149.756" y2="54.737" gradientUnits="userSpaceOnUse">
<stop stop-color="#303E9F"/>
<stop offset="1" stop-color="#4A0094"/>
</linearGradient>
<linearGradient id="paint5_linear_1282_5565" x1="161" y1="37.7737" x2="175.621" y2="68.1826" gradientUnits="userSpaceOnUse">
<stop stop-color="#FF7563"/>
<stop offset="1" stop-color="#FFA06A"/>
</linearGradient>
<linearGradient id="paint6_linear_1282_5565" x1="157.602" y1="24.1707" x2="171.338" y2="15.0914" gradientUnits="userSpaceOnUse">
<stop stop-color="#FFCABE"/>
<stop offset="1" stop-color="#FFDED7"/>
</linearGradient>
<linearGradient id="paint7_linear_1282_5565" x1="171.672" y1="10.4223" x2="177.95" y2="25.571" gradientUnits="userSpaceOnUse">
<stop stop-color="#FF7563"/>
<stop offset="1" stop-color="#FFA06A"/>
</linearGradient>
</defs>
</svg>
