<svg width="50" height="51" viewBox="0 0 50 51" fill="none" xmlns="http://www.w3.org/2000/svg">
<path d="M38.5897 50.4902C32.2897 50.4902 27.1797 45.3802 27.1797 39.0802V29.8602C27.1797 28.6502 28.1597 27.6702 29.3697 27.6702H38.5897C44.8897 27.6702 49.9997 32.7802 49.9997 39.0802C49.9997 45.3802 44.8897 50.4902 38.5897 50.4902Z" fill="#FF5912"/>
<path d="M11.41 50.4902C17.71 50.4902 22.82 45.3802 22.82 39.0802V29.8602C22.82 28.6502 21.84 27.6702 20.63 27.6702H11.41C5.11 27.6702 0 32.7802 0 39.0802C0 45.3802 5.11 50.4902 11.41 50.4902Z" fill="#FF5912"/>
<path d="M38.5897 0.490234C32.2897 0.490234 27.1797 5.60023 27.1797 11.9002V21.1202C27.1797 22.3302 28.1597 23.3102 29.3697 23.3102H38.5897C44.8897 23.3102 49.9997 18.2002 49.9997 11.9002C49.9997 5.59023 44.8897 0.490234 38.5897 0.490234Z" fill="#FF5912"/>
<path d="M11.41 0C17.71 0 22.82 5.11 22.82 11.41V20.63C22.82 21.84 21.84 22.82 20.63 22.82H11.41C5.11 22.81 0 17.7 0 11.4C0 5.1 5.11 0 11.41 0Z" fill="#FF5912"/>
</svg>
