<svg width="52" height="43" viewBox="0 0 52 43" fill="none" xmlns="http://www.w3.org/2000/svg">
<path d="M51.3103 16.85C50.7903 15.08 49.8903 13.39 48.7103 11.82L42.0903 25.5C42.0703 25.54 42.0503 25.58 42.0303 25.62C42.2403 26.21 42.3703 26.82 42.4203 27.44C44.7403 27.43 47.0303 26.78 48.9503 25.47C53.0303 22.68 52.0903 19.52 51.3103 16.85Z" fill="#FF5912"/>
<path d="M34.4 21.71C34.41 21.7 34.41 21.69 34.42 21.68L42.63 6.3C38.64 3.71 33.8 1.97 29.05 1.58C28.17 1.51 27.29 1.47 26.4 1.47C11.82 1.47 0 11.41 0 23.68C0 35.3 12.55 41.29 20.34 41.95C22.95 42.17 24.31 41.74 25.41 40.82C26.31 40.06 26.42 39.07 26.21 38.09C26.05 37.34 25.68 36.66 25.2 36.06C24.19 34.8 22.12 31.73 22.74 28.43C23.21 25.91 25.6 25.24 27.5 25.13C28.33 25.08 29.17 25.14 29.99 25.29C31.11 22.98 32.99 22.06 34.4 21.71ZM9.38998 31.43C7.02998 31.43 5.12997 29.54 5.12997 27.21C5.12997 24.88 7.03998 22.99 9.38998 22.99C11.74 22.99 13.65 24.88 13.65 27.21C13.65 29.54 11.74 31.43 9.38998 31.43ZM12.55 20.62C10.19 20.62 8.28998 18.73 8.28998 16.4C8.28998 14.07 10.2 12.18 12.55 12.18C14.9 12.18 16.81 14.07 16.81 16.4C16.81 18.73 14.9 20.62 12.55 20.62ZM22.33 13.7C20.13 13.7 18.35 11.94 18.35 9.76C18.35 7.58 20.13 5.82 22.33 5.82C24.53 5.82 26.31 7.58 26.31 9.76C26.31 11.94 24.52 13.7 22.33 13.7ZM29.92 10.42C29.92 8.45 31.53 6.86 33.52 6.86C35.51 6.86 37.12 8.46 37.12 10.42C37.12 12.38 35.51 13.98 33.52 13.98C31.53 13.98 29.92 12.39 29.92 10.42Z" fill="#FF5912"/>
<path d="M40.22 25.49C40.17 25.4 40.12 25.32 40.07 25.23C40.31 25.19 40.53 25.04 40.64 24.81L47.58 10.46L51.13 3.12C51.65 2.05 51.21 0.76 50.13 0.23C49.81 0.07 49.47 0 49.14 0C48.35 0 47.59 0.42 47.19 1.16L43.96 7.22L35.84 22.43C35.73 22.65 35.73 22.89 35.82 23.09C34.85 23.16 32.8 23.56 31.61 25.67C31.55 25.77 31.5 25.87 31.44 25.98C29.9 29.14 31.37 30.85 32.02 32.39C32.67 33.94 31.94 36.26 31.36 36.89C31.14 37.13 31.18 37.22 31.35 37.22C31.62 37.22 32.21 36.99 32.5 36.82C32.97 36.54 37.5 34.41 39.25 32.26C40.5 30.72 40.98 28.98 40.78 27.36C40.7 26.7 40.52 26.07 40.22 25.49Z" fill="#FF5912"/>
</svg>
