<svg width="50" height="45" viewBox="0 0 50 45" fill="none" xmlns="http://www.w3.org/2000/svg">
<path d="M49.3785 9.73783C47.9585 4.83783 43.7086 0.787833 38.6986 0.117833C38.4586 0.0878333 38.2185 0.0578334 37.9785 0.0378334C32.8786 -0.352167 28.7286 2.30783 26.5186 6.40783C25.8786 7.60783 24.1185 7.60783 23.4785 6.40783C21.2785 2.30783 17.1186 -0.352167 12.0186 0.0378334C11.7786 0.0578334 11.5386 0.0778333 11.2986 0.117833C6.28856 0.787833 2.03853 4.83783 0.618534 9.73783C-0.461466 13.4478 -0.0614638 17.5078 1.30854 21.1178C2.67854 24.7278 4.98855 27.9078 7.66855 30.6478C10.6286 33.6678 14.1086 36.1078 17.3586 38.7578L24.0085 43.6778C24.6085 44.1178 25.4185 44.1178 26.0085 43.6778L32.6585 38.7578C35.9085 36.1078 39.3785 33.6778 42.3485 30.6478C45.0285 27.9078 47.3386 24.7278 48.7086 21.1178C50.0586 17.5078 50.4485 13.4478 49.3785 9.73783ZM44.4785 7.86783C45.5385 7.86783 46.3985 8.74783 46.3985 9.82783C46.3985 10.9078 45.5385 11.7878 44.4785 11.7878C43.4186 11.7878 42.5585 10.9078 42.5585 9.82783C42.5585 8.74783 43.4186 7.86783 44.4785 7.86783ZM40.3485 29.6578C37.6285 32.2378 34.6486 34.4878 31.7686 36.8378L25.8785 41.1978C25.3485 41.5878 24.6286 41.5878 24.1086 41.1978L18.2185 36.8378C15.3385 34.4978 12.2686 32.3278 9.63855 29.6578L7.47855 27.3878C9.55855 24.6978 11.5685 22.1178 15.1285 21.6078C17.8685 21.2178 20.7585 22.1978 22.7185 24.1778C24.0685 25.5378 24.9985 27.3478 26.5685 28.4378C26.8685 28.6478 28.7785 29.6278 31.1485 29.3078C32.3785 29.1478 33.2586 28.6878 35.0186 27.7678C35.2186 27.6578 35.4285 27.5478 35.6285 27.4378C36.5085 26.9478 37.3786 26.2678 38.3586 26.0078C39.6086 25.6678 40.9785 26.0278 41.9685 26.8678C42.2485 27.0978 42.4385 27.3378 42.5685 27.5078C41.7385 28.4078 40.9785 29.0578 40.3485 29.6578ZM44.8985 22.2878C44.6385 22.6978 44.1985 22.9178 43.7585 22.9178C43.4985 22.9178 43.2385 22.8378 43.0085 22.6878C42.3785 22.2578 42.2085 21.3978 42.6185 20.7478C44.3685 18.0478 44.1186 14.7278 44.1086 14.6878C44.0486 13.9178 44.5986 13.2378 45.3586 13.1778C46.1286 13.0978 46.7785 13.6778 46.8385 14.4478C46.8585 14.6278 47.1685 18.7878 44.8985 22.2878Z" fill="#FF5912"/>
</svg>
