<svg width="44" height="52" viewBox="0 0 44 52" fill="none" xmlns="http://www.w3.org/2000/svg">
<path d="M13.16 11.6C16.71 10.72 23.43 9.65 30.45 11.68L33.24 3.81C33.59 2.82 32.76 1.81 31.22 1.37L30.5 1.17C25 -0.39 18.63 -0.39 13.13 1.17L12.41 1.37C10.87 1.81 10.04 2.81 10.39 3.81L13.16 11.6Z" fill="#FF5912"/>
<path d="M29.85 13.34L29.86 13.32C23.38 11.49 17.07 12.46 13.7 13.27C3.69001 17.16 0 27.98 0 35.39C0 44.56 9.77001 52 21.82 52C33.87 52 43.64 44.56 43.64 35.39C43.63 28.02 39.27 17.29 29.85 13.34ZM28.24 38C27.66 38.84 26.8 39.51 25.65 40.01C24.99 40.3 24.24 40.5 23.42 40.62V42.16C23.42 43.14 22.63 43.94 21.64 43.94C20.65 43.94 19.86 43.14 19.86 42.16V40.68C19.02 40.6 18.19 40.46 17.38 40.25C16.88 40.12 16.41 39.97 15.98 39.8C14.94 39.4 14.47 38.2 14.93 37.18C15.37 36.2 16.5 35.75 17.5 36.15C17.81 36.28 18.14 36.39 18.47 36.49C18.94 36.63 19.4 36.74 19.86 36.82C20.4 36.91 20.94 36.96 21.48 36.96C22.31 36.96 22.95 36.87 23.42 36.68C24 36.45 24.29 36.07 24.29 35.55C24.29 35.06 24.02 34.69 23.49 34.45C23.47 34.44 23.44 34.43 23.42 34.42C22.88 34.19 22.05 33.95 20.92 33.7C20.55 33.62 20.2 33.54 19.87 33.46C19.03 33.25 18.29 33.03 17.66 32.8C16.79 32.48 16.04 31.97 15.42 31.26C14.8 30.55 14.48 29.6 14.48 28.4C14.48 27.35 14.77 26.4 15.34 25.55C15.92 24.7 16.77 24.03 17.92 23.54C18.5 23.29 19.15 23.1 19.87 22.98V21.4C19.87 20.42 20.67 19.62 21.65 19.62C22.63 19.62 23.43 20.42 23.43 21.4V22.86C24.12 22.92 24.81 23.02 25.49 23.18C25.83 23.26 26.17 23.35 26.48 23.45C27.56 23.8 28.1 25.01 27.66 26.06C27.26 27.02 26.18 27.51 25.21 27.16C24.61 26.94 24.01 26.79 23.43 26.7C22.99 26.63 22.55 26.59 22.11 26.59C21.14 26.59 20.43 26.73 19.99 27.02C19.95 27.05 19.91 27.07 19.88 27.1C19.51 27.38 19.33 27.72 19.33 28.14C19.33 28.52 19.52 28.83 19.88 29.05C19.95 29.09 20.03 29.14 20.12 29.17C20.65 29.4 21.49 29.64 22.66 29.88C22.93 29.94 23.19 30 23.44 30.05C24.41 30.28 25.24 30.52 25.93 30.78C26.79 31.1 27.54 31.61 28.17 32.31C28.8 33.01 29.12 33.96 29.12 35.16C29.11 36.23 28.82 37.16 28.24 38Z" fill="#FF5912"/>
</svg>
