<svg width="37" height="53" viewBox="0 0 37 53" fill="none" xmlns="http://www.w3.org/2000/svg">
<path d="M22.6957 46.8461H13.6758C12.6858 46.8461 11.8857 46.0461 11.8857 45.0561C11.8857 44.0661 12.6858 43.2661 13.6758 43.2661H22.6957C23.6857 43.2661 24.4858 44.0661 24.4858 45.0561C24.4958 46.0361 23.6857 46.8461 22.6957 46.8461Z" fill="#FF5912"/>
<path d="M21.3758 52.0061H15.0058C14.0158 52.0061 13.2158 51.2061 13.2158 50.2161C13.2158 49.2261 14.0158 48.4261 15.0058 48.4261H21.3758C22.3658 48.4261 23.1658 49.2261 23.1658 50.2161C23.1658 51.1961 22.3658 52.0061 21.3758 52.0061Z" fill="#FF5912"/>
<path d="M16.1055 0.116058C7.80551 1.03606 1.07547 7.73606 0.125474 16.0261C-0.704526 23.2061 2.65548 29.6461 8.06548 33.2861C8.77548 33.7661 9.16551 34.5861 9.16551 35.4361V38.2661C9.16551 38.2761 9.16551 38.2961 9.16551 38.3061C9.18551 40.2061 10.8755 41.6661 12.7755 41.6661H23.6155C25.5155 41.6661 27.2055 40.2061 27.2255 38.3061C27.2255 38.2961 27.2255 38.2761 27.2255 38.2661V35.4261C27.2255 34.5661 27.6355 33.7461 28.3455 33.2661C33.1955 29.9961 36.3855 24.4661 36.3855 18.1861C36.3755 7.45606 27.0855 -1.10394 16.1055 0.116058ZM27.3455 10.2861C27.0255 9.31606 27.5555 8.25606 28.5255 7.93606C29.4955 7.61606 30.5555 8.14606 30.8755 9.11606C31.1955 10.0861 30.6655 11.1461 29.6955 11.4661C28.7155 11.7861 27.6655 11.2561 27.3455 10.2861ZM31.9255 21.7861C31.8055 21.7861 31.6955 21.7761 31.5755 21.7361C30.8655 21.5461 30.4555 20.8161 30.6455 20.1061C31.4555 17.1361 30.2355 14.2261 30.2155 14.1961C29.9255 13.5261 30.2455 12.7461 30.9155 12.4561C31.5855 12.1661 32.3655 12.4761 32.6555 13.1561C32.7155 13.3061 34.2455 16.9561 33.2055 20.8061C33.0355 21.3961 32.5055 21.7861 31.9255 21.7861Z" fill="#FF5912"/>
</svg>
