<svg width="52" height="48" viewBox="0 0 52 48" fill="none" xmlns="http://www.w3.org/2000/svg">
<path d="M34.8602 3.62L36.5702 1.08C36.8802 0.62 36.5502 0 36.0002 0H24.8502C24.4702 0 24.1602 0.31 24.1602 0.69V3.72V8V16.1C24.1602 16.48 24.4702 16.79 24.8502 16.79H27.1902C27.5702 16.79 27.8802 16.48 27.8802 16.1V8.69C27.8802 8.31 28.1902 8 28.5702 8H36.0002C36.5502 8 36.8802 7.38 36.5702 6.92L34.8602 4.38C34.7002 4.16 34.7002 3.85 34.8602 3.62Z" fill="#FF5912"/>
<path d="M45.8598 22.33C47.0498 22.33 48.0198 23.45 48.0198 24.83C48.0198 26.21 47.0498 27.33 45.8598 27.33H6.16977C4.97977 27.33 4.00977 26.21 4.00977 24.83C4.00977 23.45 4.97977 22.33 6.16977 22.33H45.8598Z" fill="#FF5912"/>
<path d="M42.8999 23.99C42.8999 17.45 37.3099 12.15 30.4099 12.15H21.6199C14.7199 12.15 9.12988 17.45 9.12988 23.99H42.8999Z" fill="#FF5912"/>
<path d="M49.51 42.99H43.56V30.66C43.56 29.86 42.91 29.21 42.11 29.21H39.98C39.18 29.21 38.53 29.86 38.53 30.66V42.98H33.53V30.66C33.53 29.86 32.88 29.21 32.08 29.21H29.95C29.15 29.21 28.5 29.86 28.5 30.66V42.98H23.5V30.66C23.5 29.86 22.85 29.21 22.05 29.21H19.94C19.14 29.21 18.49 29.86 18.49 30.66V42.98H13.49V30.66C13.49 29.86 12.84 29.21 12.04 29.21H9.91C9.11 29.21 8.46 29.86 8.46 30.66V42.98H2.50999C1.11999 42.98 0 44.1 0 45.49C0 46.88 1.11999 48 2.50999 48H49.49C50.88 48 52 46.88 52 45.49C52.02 44.11 50.89 42.99 49.51 42.99Z" fill="#FF5912"/>
</svg>
