<svg width="36" height="54" viewBox="0 0 36 54" fill="none" xmlns="http://www.w3.org/2000/svg">
<path d="M35.0087 44.11L23.3387 22.68V13.71H25.2987C26.3387 13.71 27.1787 12.87 27.1787 11.84C27.1787 10.8 26.3387 9.95999 25.2987 9.95999H10.5386C9.49864 9.95999 8.66865 10.8 8.66865 11.84C8.66865 12.88 9.50864 13.71 10.5386 13.71H12.4486V22.68L0.818673 44.12C-1.46133 48.33 1.25864 53.66 6.03864 53.98C6.19864 53.99 6.36864 54 6.53864 54H29.3087C29.4787 54 29.6387 53.99 29.7987 53.98C34.5787 53.66 37.2987 48.32 35.0087 44.11ZM24.7987 29.77L27.3487 34.62C27.6587 35.21 27.4287 35.93 26.8487 36.24C26.6687 36.33 26.4786 36.38 26.2886 36.38C25.8586 36.38 25.4386 36.15 25.2286 35.74L22.6787 30.89C22.3687 30.3 22.5987 29.58 23.1787 29.27C23.7687 28.96 24.4987 29.18 24.7987 29.77ZM21.9486 25.3C22.7786 25.3 23.4486 25.97 23.4486 26.8C23.4486 27.63 22.7786 28.3 21.9486 28.3C21.1186 28.3 20.4486 27.63 20.4486 26.8C20.4486 25.97 21.1186 25.3 21.9486 25.3ZM28.1887 51.85C27.9687 51.87 27.7386 51.89 27.5086 51.89H8.31867C8.17867 51.89 8.03866 51.89 7.89866 51.88C3.87866 51.6 1.57867 47.11 3.49867 43.57L6.24867 38.7L6.87867 38.99C9.15867 40.05 11.1987 41.14 13.8087 40.62C15.9787 40.19 17.8586 38.87 19.9486 38.14C23.3286 36.97 26.3487 37.85 29.6587 38.69L32.2987 43.54C34.1887 46.99 32.0987 51.42 28.1887 51.85Z" fill="#FF5912"/>
<path d="M22.3088 7.58999C23.7188 7.58999 24.8588 6.44999 24.8588 5.03999C24.8588 3.62999 23.7188 2.48999 22.3088 2.48999C20.8988 2.48999 19.7588 3.62999 19.7588 5.03999C19.7588 6.44999 20.8988 7.58999 22.3088 7.58999Z" fill="#FF5912"/>
<path d="M27.0586 2.5C27.7489 2.5 28.3086 1.94036 28.3086 1.25C28.3086 0.559644 27.7489 0 27.0586 0C26.3682 0 25.8086 0.559644 25.8086 1.25C25.8086 1.94036 26.3682 2.5 27.0586 2.5Z" fill="#FF5912"/>
</svg>
