<svg width="52" height="39" viewBox="0 0 52 39" fill="none" xmlns="http://www.w3.org/2000/svg">
<path d="M20.0657 18.27C18.7657 17.29 17.7057 16.01 17.0057 14.52C16.9957 14.5 16.9857 14.47 16.9757 14.45C16.9557 14.46 16.9457 14.47 16.9257 14.48C15.6057 15.32 14.0457 15.82 12.3757 15.82C10.6957 15.82 9.13571 15.33 7.82571 14.48C3.98571 16.48 1.05571 22.78 0.075711 27.2C-0.294289 28.88 0.725718 30.56 2.39572 30.97L3.29571 31.19C5.85571 31.82 8.45572 32.18 11.0657 32.27C12.0057 28.9 13.5457 25.57 15.5957 22.83C16.6657 21.4 18.5757 19.51 20.0657 18.27Z" fill="#FF5912"/>
<path d="M31.9053 18.27C33.2053 17.29 34.2653 16.01 34.9653 14.52C34.9753 14.5 34.9853 14.47 34.9953 14.45C35.0153 14.46 35.0253 14.47 35.0453 14.48C36.3653 15.32 37.9253 15.82 39.5953 15.82C41.2753 15.82 42.8353 15.33 44.1453 14.48C47.9853 16.48 50.9153 22.78 51.8953 27.2C52.2653 28.88 51.2453 30.56 49.5753 30.97L48.6753 31.19C46.1153 31.82 43.5153 32.18 40.9053 32.27C39.9653 28.9 38.4253 25.57 36.3753 22.83C35.3053 21.4 33.3953 19.51 31.9053 18.27Z" fill="#FF5912"/>
<path d="M9.1459 13.89C10.1159 14.37 11.2059 14.65 12.3659 14.65C13.5259 14.65 14.6159 14.37 15.5859 13.89C15.9159 13.73 16.2259 13.55 16.5259 13.34C16.1959 12.34 16.0159 11.28 16.0159 10.17C16.0159 7.59 16.9859 5.24 18.5759 3.46C17.2859 1.39 14.9859 0 12.3659 0C8.32591 0 5.0459 3.28 5.0459 7.32C5.0459 10.21 6.7259 12.7 9.1459 13.89Z" fill="#FF5912"/>
<path d="M35.6859 13.5C35.9059 13.64 36.1459 13.77 36.3759 13.89C37.3459 14.37 38.4359 14.65 39.5959 14.65C40.7559 14.65 41.8459 14.37 42.8159 13.89C45.2459 12.7 46.9159 10.2 46.9159 7.32C46.9159 3.28 43.6359 0 39.5959 0C37.0559 0 34.8259 1.3 33.5059 3.26C35.2059 5.07 36.2458 7.5 36.2458 10.17C36.2458 11.34 36.0459 12.46 35.6859 13.5Z" fill="#FF5912"/>
<path d="M39.7655 32.3C38.3655 27.67 35.0755 21.15 30.8455 19.13C30.4455 19.34 30.0255 19.53 29.5955 19.69C28.5155 20.08 27.3555 20.3 26.1355 20.3C24.7655 20.3 23.4655 20.03 22.2755 19.53C21.9855 19.41 21.7055 19.28 21.4255 19.13C17.1955 21.15 13.9055 27.67 12.5055 32.3C12.3755 32.74 12.2555 33.19 12.1555 33.63C11.7855 35.29 12.7755 36.9 14.4155 37.3L15.4855 37.56C22.4555 39.28 29.8255 39.28 36.7855 37.56L37.8555 37.3C39.4855 36.9 40.4755 35.29 40.1155 33.63C40.0155 33.18 39.8955 32.74 39.7655 32.3Z" fill="#FF5912"/>
<path d="M17.6957 12.34C17.7557 12.56 17.8157 12.78 17.8857 12.99C17.9557 13.19 18.0157 13.39 18.1057 13.58C18.8057 15.24 20.0157 16.63 21.5257 17.57C21.7757 17.73 22.0357 17.87 22.3057 18.01C22.6257 18.17 22.9557 18.31 23.3057 18.43C24.1957 18.74 25.1457 18.91 26.1457 18.91C27.1457 18.91 28.0957 18.73 28.9857 18.43C29.3257 18.31 29.6557 18.17 29.9857 18.01C30.2557 17.88 30.5157 17.73 30.7657 17.57C32.2157 16.66 33.3757 15.34 34.0957 13.77C34.1757 13.58 34.2557 13.39 34.3257 13.2C34.3957 13 34.4657 12.8 34.5257 12.59C34.7457 11.83 34.8657 11.02 34.8657 10.19C34.8657 8.05999 34.0957 6.10999 32.8257 4.58999C32.6857 4.42999 32.5457 4.26999 32.3957 4.10999C32.2557 3.95999 32.1057 3.82999 31.9557 3.68999C30.4157 2.30999 28.3757 1.45999 26.1457 1.45999C23.8157 1.45999 21.6957 2.38999 20.1257 3.87999C19.9757 4.01999 19.8257 4.17999 19.6857 4.32999C19.5357 4.49999 19.3857 4.66999 19.2557 4.84999C18.1057 6.32999 17.4157 8.16999 17.4157 10.18C17.4057 10.92 17.5157 11.65 17.6957 12.34Z" fill="#FF5912"/>
</svg>
