<svg width="46" height="52" viewBox="0 0 46 52" fill="none" xmlns="http://www.w3.org/2000/svg">
<path d="M23.39 46.78C10.49 46.78 0 36.29 0 23.39C0 10.49 10.49 0 23.39 0C24.09 0 24.65 0.56 24.65 1.26C24.65 1.96 24.08 2.51 23.39 2.51C11.88 2.51 2.51999 11.87 2.51999 23.38C2.51999 34.89 11.88 44.25 23.39 44.25C32.02 44.25 39.65 39.06 42.81 31.03C43.07 30.38 43.8 30.06 44.44 30.32C45.09 30.58 45.41 31.31 45.15 31.95C41.61 40.96 33.06 46.78 23.39 46.78Z" fill="#FF5912"/>
<path d="M22.6204 51.68C21.9204 51.68 21.3604 51.12 21.3604 50.42V45.67C21.3604 44.97 21.9204 44.41 22.6204 44.41C23.3204 44.41 23.8804 44.97 23.8804 45.67V50.42C23.8804 51.12 23.3104 51.68 22.6204 51.68Z" fill="#FF5912"/>
<path d="M32.0896 52H13.1496C12.6896 52 12.3096 51.62 12.3096 51.16C12.3096 50.7 12.6896 50.32 13.1496 50.32H32.0896C32.5496 50.32 32.9296 50.7 32.9296 51.16C32.9296 51.62 32.5496 52 32.0896 52Z" fill="#FF5912"/>
<path d="M40.55 14.2C40.51 14.22 40.46 14.24 40.42 14.26C38.73 15.08 36.55 15.82 34.21 16.41C34.58 18.52 34.78 20.78 34.78 23.15C34.78 25.52 34.58 27.79 34.21 29.89C36.56 30.48 38.73 31.21 40.43 32.04C40.47 32.06 40.52 32.08 40.56 32.1C42 29.43 42.82 26.39 42.82 23.15C42.81 19.92 41.99 16.87 40.55 14.2Z" fill="#FF5912"/>
<path d="M33.8602 14.67C36.0002 14.13 37.9702 13.47 39.5102 12.74C39.5502 12.72 39.6002 12.7 39.6402 12.68C37.2002 9.02 33.5202 6.26 29.2002 5C29.2602 5.06 29.3102 5.13 29.3702 5.19C31.3502 7.35 32.9302 10.65 33.8602 14.67Z" fill="#FF5912"/>
<path d="M12.9804 23.16C12.9804 20.79 13.1804 18.52 13.5504 16.42C11.2004 15.83 9.03041 15.1 7.33041 14.27C7.29041 14.25 7.24044 14.23 7.20044 14.21C5.76044 16.88 4.94043 19.92 4.94043 23.16C4.94043 26.4 5.76044 29.44 7.20044 32.11C7.24044 32.09 7.29041 32.07 7.33041 32.05C9.02041 31.23 11.2004 30.49 13.5504 29.9C13.1804 27.79 12.9804 25.53 12.9804 23.16Z" fill="#FF5912"/>
<path d="M23.8802 16.01C26.4002 16.01 29.3202 15.65 32.1002 15.07C30.7902 9.5 28.1901 5.36 25.1701 4.42C24.7501 4.29 24.3102 4.22 23.8802 4.22C23.4402 4.22 23.0101 4.29 22.5901 4.42C19.5701 5.35 16.9702 9.5 15.6602 15.07C18.4402 15.66 21.3602 16.01 23.8802 16.01Z" fill="#FF5912"/>
<path d="M13.9001 14.67C14.8301 10.65 16.4101 7.35 18.3901 5.19C18.4501 5.13 18.5001 5.06 18.5601 5C14.2401 6.27 10.5601 9.02 8.12012 12.68C8.16012 12.7 8.21012 12.72 8.25012 12.74C9.79012 13.47 11.7601 14.13 13.9001 14.67Z" fill="#FF5912"/>
<path d="M13.9001 31.64C11.7601 32.18 9.79012 32.84 8.25012 33.57C8.21012 33.59 8.16012 33.61 8.12012 33.63C10.5601 37.29 14.2501 40.05 18.5601 41.31C18.5001 41.25 18.4501 41.18 18.3901 41.12C16.4101 38.96 14.8301 35.66 13.9001 31.64Z" fill="#FF5912"/>
<path d="M15.3 16.81C14.95 18.8 14.75 20.94 14.75 23.15C14.75 25.36 14.94 27.5 15.3 29.49C18.19 28.88 21.22 28.52 23.88 28.52C26.54 28.52 29.57 28.89 32.46 29.49C32.81 27.5 33.01 25.36 33.01 23.15C33.01 20.94 32.81 18.8 32.46 16.81C29.57 17.42 26.54 17.78 23.88 17.78C21.22 17.79 18.19 17.42 15.3 16.81Z" fill="#FF5912"/>
<path d="M33.8602 31.64C32.9302 35.66 31.3502 38.96 29.3702 41.12C29.3102 41.18 29.2602 41.25 29.2002 41.31C33.5202 40.04 37.2002 37.29 39.6402 33.63C39.6002 33.61 39.5502 33.59 39.5102 33.57C37.9702 32.84 36.0002 32.18 33.8602 31.64Z" fill="#FF5912"/>
<path d="M23.8802 30.3C21.3602 30.3 18.4402 30.66 15.6602 31.24C16.9702 36.81 19.5701 40.95 22.5901 41.89C23.0101 42.02 23.4402 42.09 23.8802 42.09C24.3202 42.09 24.7501 42.02 25.1701 41.89C28.2001 40.96 30.7902 36.81 32.1002 31.24C29.3202 30.66 26.4002 30.3 23.8802 30.3Z" fill="#FF5912"/>
</svg>
